<?xml version="1.0" encoding="utf-8"?><svg viewBox="0 0 608 655" xmlns="http://www.w3.org/2000/svg" xmlns:xlink="http://www.w3.org/1999/xlink"><style>:root>svg{display:none}:root>svg:target{display:block}</style><svg fill="none" viewBox="0 0 608 97" id="articleArrow1" xmlns="http://www.w3.org/2000/svg"><path d="M595 7.5H282v88H0" stroke="#2699FF" stroke-opacity=".6" stroke-width="2"/><circle cx="601" cy="7" r="6" stroke="#2699FF" stroke-opacity=".6" stroke-width="2"/></svg><svg fill="none" viewBox="0 0 602 150" id="articleArrow2" xmlns="http://www.w3.org/2000/svg"><path d="M12.5 6.5H320v142h282" stroke="#2699FF" stroke-opacity=".6" stroke-width="2"/><circle cx="7" cy="7" r="6" transform="matrix(-1 0 0 1 14 0)" stroke="#2699FF" stroke-opacity=".6" stroke-width="2"/></svg><svg fill="none" viewBox="0 0 188 128" id="articleArrow3" xmlns="http://www.w3.org/2000/svg"><path d="M7.442 12.75V126.5H188" stroke="#2699FF" stroke-opacity=".6" stroke-width="2"/><circle cx="7" cy="7" r="6" transform="matrix(-1 0 0 1 14 0)" stroke="#2699FF" stroke-opacity=".6" stroke-width="2"/></svg><svg fill="none" viewBox="0 0 25 28" id="articleCardArrow" xmlns="http://www.w3.org/2000/svg"><path d="m.296 15.829-.002-3.357 19.279-.005-7.444-9.646L13.938.52l10.518 13.63-10.521 13.633-1.812-2.347 7.451-9.612-19.278.005Z" fill="#fff"/></svg><svg viewBox="0 0 18 18" id="blackArrow" xmlns="http://www.w3.org/2000/svg"><path d="M1.833 18 0 16.17 13.63 2.534H3.101L3.125 0H18v14.879h-2.561l.023-10.514L1.832 18Z"/></svg><svg fill="none" viewBox="0 0 213 54" id="logo" xmlns="http://www.w3.org/2000/svg"><g clip-path="url(#fa)" fill="#fff"><path d="M72.211 24.456a10.71 10.71 0 0 1-3.427-.542 7.791 7.791 0 0 1-2.818-1.64c-.801-.733-1.434-1.664-1.895-2.791-.461-1.127-.693-2.447-.693-3.956v-.657c0-1.445.224-2.703.676-3.776.45-1.07 1.056-1.964 1.813-2.675a7.452 7.452 0 0 1 2.702-1.607 10.068 10.068 0 0 1 3.313-.542c2.813 0 4.938.721 6.377 2.166 1.44 1.444 2.158 3.534 2.158 6.27v1.805H67.83c0 .787.132 1.46.395 2.02.263.558.597 1.012 1.005 1.362.407.35.874.602 1.401.754a5.626 5.626 0 0 0 1.581.229c1.1 0 1.95-.169 2.553-.51.605-.338 1.017-.803 1.236-1.394h4.087c-.177.897-.49 1.69-.94 2.38a6.162 6.162 0 0 1-1.68 1.723c-.671.46-1.45.804-2.34 1.035-.89.229-1.862.344-2.918.344l.002.002ZM67.83 13.524h8.338c0-.7-.11-1.285-.329-1.756a3.121 3.121 0 0 0-.89-1.148 3.356 3.356 0 0 0-1.301-.624 6.72 6.72 0 0 0-1.598-.182c-.527 0-1.038.066-1.533.198a3.7 3.7 0 0 0-1.335.658 3.456 3.456 0 0 0-.955 1.164c-.243.47-.374 1.035-.396 1.69h-.001ZM90.963 24.456c-1.23 0-2.373-.187-3.427-.559a7.399 7.399 0 0 1-2.719-1.657c-.757-.732-1.35-1.657-1.78-2.774-.427-1.117-.643-2.43-.643-3.939v-.657c0-1.4.232-2.631.694-3.693.461-1.062 1.082-1.958 1.862-2.692a7.734 7.734 0 0 1 2.735-1.657 9.701 9.701 0 0 1 3.28-.558c1.23 0 2.312.164 3.246.492.934.328 1.73.776 2.39 1.346a6.238 6.238 0 0 1 1.55 2.003c.373.767.614 1.588.724 2.463h-4.449c-.242-.81-.627-1.45-1.152-1.92-.528-.472-1.296-.706-2.307-.706-.572 0-1.105.099-1.598.295a3.541 3.541 0 0 0-1.301.903c-.374.404-.671.913-.89 1.527-.22.613-.33 1.346-.33 2.199v.657c0 .92.106 1.707.313 2.364.208.657.5 1.198.873 1.624.374.427.813.738 1.319.936a4.394 4.394 0 0 0 1.614.295c.878 0 1.62-.218 2.224-.658.605-.437 1.017-1.084 1.235-1.937h4.45c-.111.963-.38 1.833-.808 2.61a6.645 6.645 0 0 1-1.664 1.986 7.421 7.421 0 0 1-2.39 1.264c-.911.294-1.928.443-3.047.443h-.004ZM109.418 24.456c-1.185 0-2.307-.182-3.362-.542a7.725 7.725 0 0 1-2.785-1.657c-.802-.744-1.434-1.674-1.895-2.791-.462-1.117-.693-2.43-.693-3.939v-.657c0-1.423.231-2.67.693-3.743.461-1.07 1.092-1.964 1.895-2.675a8.325 8.325 0 0 1 2.785-1.624 10.04 10.04 0 0 1 3.362-.558c1.188 0 2.307.18 3.363.542a7.973 7.973 0 0 1 2.785 1.624c.801.721 1.434 1.62 1.895 2.691.461 1.073.691 2.32.691 3.743v.657c0 1.49-.23 2.796-.691 3.923-.461 1.128-1.094 2.063-1.895 2.807a7.725 7.725 0 0 1-2.785 1.657c-1.056.36-2.175.542-3.363.542Zm0-3.677c.614 0 1.186-.11 1.714-.328a3.455 3.455 0 0 0 1.351-1.001c.373-.45.669-1.002.89-1.658.218-.657.329-1.411.329-2.265v-.657c0-.787-.111-1.489-.329-2.1-.221-.612-.517-1.126-.89-1.544a3.706 3.706 0 0 0-1.351-.952 4.452 4.452 0 0 0-1.714-.328c-.614 0-1.185.11-1.713.328-.528.22-.978.537-1.351.952-.373.416-.671.93-.89 1.544-.22.613-.329 1.313-.329 2.1v.657c0 .876.11 1.641.329 2.298.219.658.517 1.203.89 1.641.373.438.823.767 1.351.985.528.22 1.098.328 1.713.328ZM120.953 24.062V6.663h4.021v2.659c.417-.831 1.104-1.547 2.06-2.15.956-.602 2.225-.902 3.807-.902 2.131 0 3.725.569 4.78 1.706 1.055 1.139 1.583 2.78 1.583 4.924v11.16h-4.351V13.883c0-1.313-.276-2.298-.824-2.953-.55-.658-1.472-.986-2.768-.986-.682 0-1.274.11-1.78.328-.506.22-.917.51-1.235.87-.318.36-.555.782-.708 1.263-.154.482-.23.975-.23 1.478V24.06h-4.349l-.006.002ZM148.569 24.456c-1.186 0-2.307-.182-3.362-.542a7.72 7.72 0 0 1-2.786-1.657c-.801-.744-1.433-1.674-1.895-2.791-.461-1.117-.691-2.43-.691-3.939v-.657c0-1.423.23-2.67.691-3.743.462-1.07 1.092-1.964 1.895-2.675a8.32 8.32 0 0 1 2.786-1.624 10.037 10.037 0 0 1 3.362-.558c1.187 0 2.307.18 3.362.542a7.964 7.964 0 0 1 2.785 1.624c.802.721 1.434 1.62 1.896 2.691.461 1.073.691 2.32.691 3.743v.657c0 1.49-.23 2.796-.691 3.923-.462 1.128-1.094 2.063-1.896 2.807a7.717 7.717 0 0 1-2.785 1.657c-1.055.36-2.175.542-3.362.542Zm0-3.677c.614 0 1.186-.11 1.713-.328a3.448 3.448 0 0 0 1.351-1.001c.374-.45.67-1.002.89-1.658.219-.657.329-1.411.329-2.265v-.657c0-.787-.11-1.489-.329-2.1-.22-.612-.516-1.126-.89-1.544a3.697 3.697 0 0 0-1.351-.952 4.443 4.443 0 0 0-1.713-.328c-.614 0-1.186.11-1.713.328a3.71 3.71 0 0 0-1.352.952c-.373.416-.671.93-.889 1.544-.221.613-.329 1.313-.329 2.1v.657c0 .876.11 1.641.329 2.298.218.658.516 1.203.889 1.641.374.438.824.767 1.352.985.527.22 1.099.328 1.713.328ZM160.104 24.062V6.663h4.087v2.758c.395-.875 1.017-1.619 1.862-2.232.846-.612 1.885-.92 3.114-.92 1.429 0 2.532.279 3.313.837.78.559 1.335 1.308 1.664 2.249.483-.897 1.175-1.635 2.075-2.216.901-.58 1.989-.87 3.263-.87 1.868 0 3.296.532 4.285 1.592.99 1.062 1.484 2.686 1.484 4.874V24.06H180.9V13.786c0-1.4-.226-2.391-.675-2.97-.45-.58-1.169-.87-2.158-.87-.44 0-.851.088-1.236.262a3.036 3.036 0 0 0-1.022.771 3.685 3.685 0 0 0-.693 1.214 4.793 4.793 0 0 0-.246 1.591v10.274h-4.351V13.784c0-1.4-.23-2.391-.692-2.97-.461-.58-1.185-.87-2.174-.87-.44 0-.851.088-1.236.262a3.037 3.037 0 0 0-1.022.771 3.646 3.646 0 0 0-.691 1.214 4.793 4.793 0 0 0-.246 1.591v10.274h-4.35l-.004.006ZM191.215 4.794c-.812 0-1.456-.23-1.928-.69-.473-.46-.708-1.03-.708-1.707 0-.678.235-1.275.708-1.723.472-.449 1.114-.674 1.928-.674.815 0 1.456.229 1.929.688.472.46.707 1.03.707 1.707 0 .678-.237 1.274-.707 1.723-.473.449-1.116.674-1.929.674v.002Zm-2.174 19.268V6.665h4.351v17.399h-4.351v-.002ZM205.089 24.456c-1.23 0-2.373-.187-3.427-.559a7.391 7.391 0 0 1-2.719-1.657c-.757-.732-1.351-1.657-1.779-2.774-.428-1.117-.643-2.43-.643-3.939v-.657c0-1.4.229-2.631.691-3.693.461-1.062 1.082-1.958 1.862-2.692a7.729 7.729 0 0 1 2.735-1.657 9.709 9.709 0 0 1 3.28-.558c1.23 0 2.313.164 3.246.492.934.328 1.73.776 2.39 1.346a6.238 6.238 0 0 1 1.55 2.003 7.82 7.82 0 0 1 .724 2.463h-4.448c-.243-.81-.627-1.45-1.153-1.92-.528-.472-1.296-.706-2.307-.706-.572 0-1.103.099-1.598.295a3.542 3.542 0 0 0-1.301.903c-.373.404-.671.913-.89 1.527-.221.613-.329 1.346-.329 2.199v.657c0 .92.105 1.707.312 2.364.208.657.5 1.198.874 1.624.373.427.812.738 1.318.936a4.39 4.39 0 0 0 1.614.295c.879 0 1.619-.218 2.224-.658.605-.437 1.017-1.084 1.236-1.937h4.448c-.11.963-.378 1.833-.807 2.61a6.641 6.641 0 0 1-1.663 1.986 7.42 7.42 0 0 1-2.39 1.264c-.912.294-1.929.443-3.048.443h-.002ZM70.794 54.002c-1.122 0-2.136-.192-3.048-.575a6.374 6.374 0 0 1-2.34-1.673c-.65-.732-1.15-1.663-1.5-2.79-.352-1.127-.528-2.425-.528-3.89v-.657c0-1.4.17-2.631.511-3.693.34-1.062.835-1.96 1.483-2.692a6.21 6.21 0 0 1 2.34-1.657c.912-.372 1.94-.559 3.082-.559 1.141 0 2.18.253 3.114.755a5.942 5.942 0 0 1 2.257 2.133v-8.075h4.35v22.978h-4.02v-2.659c-.44.81-1.15 1.522-2.126 2.133-.978.612-2.169.92-3.575.92v.002Zm1.055-3.643c.614 0 1.186-.105 1.713-.312a3.754 3.754 0 0 0 1.368-.919c.384-.404.686-.892.906-1.461.22-.57.33-1.214.33-1.937v-1.97c0-.678-.11-1.28-.33-1.806a4.184 4.184 0 0 0-.906-1.362 3.623 3.623 0 0 0-1.368-.853 5.146 5.146 0 0 0-1.713-.279c-.614 0-1.136.105-1.63.311a3.48 3.48 0 0 0-1.286.936c-.362.416-.638.93-.823 1.544-.188.613-.28 1.335-.28 2.166v.657c0 .875.1 1.64.296 2.298.199.657.478 1.203.84 1.64.363.438.79.772 1.285 1.002a3.76 3.76 0 0 0 1.598.345ZM89.414 54.001c-.945 0-1.785-.143-2.52-.427-.738-.283-1.357-.666-1.863-1.148a4.745 4.745 0 0 1-1.152-1.723 5.903 5.903 0 0 1-.396-2.182c0-1.729.528-3.025 1.583-3.89 1.055-.864 2.614-1.296 4.68-1.296h5.209v-.886c0-1.203-.28-2.036-.84-2.494-.561-.458-1.357-.69-2.39-.69-.967 0-1.68.17-2.142.509a1.782 1.782 0 0 0-.757 1.362h-4.35c.044-.766.24-1.472.594-2.117a5.186 5.186 0 0 1 1.467-1.673c.627-.471 1.39-.843 2.29-1.115.901-.273 1.923-.41 3.065-.41s2.136.12 3.048.36c.912.242 1.691.635 2.34 1.181.647.548 1.147 1.247 1.5 2.1.351.854.528 1.883.528 3.086v6.63c0 .92.016 1.723.05 2.413.032.69.093 1.363.181 2.02h-4.053c-.044-.416-.083-.793-.116-1.132-.033-.338-.05-.738-.05-1.197-.242.372-.55.727-.922 1.067-.374.34-.802.63-1.285.87a7.459 7.459 0 0 1-1.648.575 9.05 9.05 0 0 1-2.044.214l-.007-.007Zm1.318-3.25c.572 0 1.114-.083 1.63-.245a4.016 4.016 0 0 0 1.352-.722c.384-.317.685-.71.906-1.181.219-.47.33-.99.33-1.56v-.886h-4.383c-.857 0-1.512.203-1.962.608-.45.404-.677.935-.677 1.593 0 .7.22 1.274.66 1.723.44.448 1.153.673 2.142.673l.002-.003ZM109.651 53.803c-1.033 0-1.928-.104-2.685-.311-.758-.207-1.374-.548-1.846-1.018-.472-.471-.824-1.068-1.055-1.79-.23-.72-.346-1.609-.346-2.658v-8.207h-2.307v-3.61h2.307v-3.94h4.35v3.94h4.219v3.61h-4.219v7.55c0 .481.038.897.116 1.246.077.35.215.636.411.854.199.22.462.382.791.492.329.11.746.165 1.252.165.329 0 .66-.005.989-.016.329-.011.658-.039.989-.083v3.611c-.418.044-.851.083-1.302.115-.45.033-1.005.05-1.664.05ZM120.822 54.001c-.945 0-1.785-.143-2.52-.427-.736-.283-1.357-.666-1.863-1.148a4.752 4.752 0 0 1-1.152-1.723 5.9 5.9 0 0 1-.395-2.182c0-1.729.527-3.025 1.582-3.89 1.056-.864 2.615-1.296 4.681-1.296h5.208v-.886c0-1.203-.28-2.036-.84-2.494-.561-.458-1.357-.69-2.39-.69-.967 0-1.68.17-2.142.509a1.788 1.788 0 0 0-.757 1.362h-4.352a4.955 4.955 0 0 1 .594-2.117 5.183 5.183 0 0 1 1.467-1.673c.627-.471 1.39-.843 2.291-1.115.901-.273 1.923-.41 3.064-.41 1.142 0 2.136.12 3.048.36.912.242 1.692.635 2.34 1.181.648.548 1.148 1.247 1.501 2.1.351.854.527 1.883.527 3.086v6.63c0 .92.017 1.723.05 2.413.033.689.094 1.363.182 2.02h-4.054c-.044-.416-.082-.793-.116-1.132a12.569 12.569 0 0 1-.049-1.197c-.243.372-.55.727-.923 1.067-.373.34-.802.63-1.285.87a7.466 7.466 0 0 1-1.647.575 9.051 9.051 0 0 1-2.044.214l-.006-.007Zm1.318-3.25c.572 0 1.114-.083 1.631-.245a4.019 4.019 0 0 0 1.351-.722c.384-.317.686-.71.906-1.181.219-.47.329-.99.329-1.56v-.886h-4.382c-.857 0-1.511.203-1.962.608-.45.404-.674.935-.674 1.593 0 .7.218 1.274.659 1.723.44.448 1.153.673 2.142.673v-.003ZM6.734 6.668H0v6.707h6.734V6.668ZM20.199 6.664h-6.734v20.12h6.734V6.664ZM26.932 33.49v6.706H40.4v6.707H20.2v-20.12h6.732V13.372h6.734v6.707H40.4v6.706h-6.734v6.707h-6.734Z"/><path d="M47.132 13.371h-6.734v6.707h6.734v-6.707ZM13.466 26.784v6.707H6.734v6.705H0V20.078h6.734v6.706h6.732ZM47.132 33.492h-6.734V40.2h6.734v-6.707ZM13.467 40.2H6.733v6.706h6.734V40.2Z"/><path d="M20.199 46.902h-6.734v6.702h6.734v-6.702ZM47.132 46.902h-6.734v6.702h6.734v-6.702Z"/></g><defs><clipPath id="fa"><path fill="#fff" d="M0 0h213v54H0z"/></clipPath></defs></svg><svg fill="none" viewBox="0 0 140 140" id="reasonIcon1" xmlns="http://www.w3.org/2000/svg"><rect x="108.178" y="18.555" width="102.198" height="77.624" rx="5.962" transform="rotate(90 108.178 18.555)" stroke="url(#ga)" stroke-width="5.11"/><path d="M43.96 62.047 59.557 87.8l14.871-9.43 8.706-12.333 9.43 6.529" stroke="url(#gb)" stroke-width="1.703" stroke-linecap="round"/><path fill="url(#gc)" d="M56.326 97.93h5.078v9.431h-5.078z"/><path fill="url(#gd)" d="M48.313 87.047h5.078v20.312h-5.078z"/><path fill="url(#ge)" d="M40.333 69.637h5.078v37.723h-5.078z"/><path fill="url(#gf)" d="M64.306 92.125h5.078v15.234h-5.078z"/><path fill="url(#gg)" d="M72.285 84.144h5.078v23.214h-5.078z"/><path fill="url(#gh)" d="M80.266 74.715h5.078v32.645h-5.078z"/><path fill="url(#gi)" d="M88.213 80.519h5.078v26.841h-5.078z"/><rect x="91.631" y="50.773" width="3.625" height="23.254" rx="1.813" transform="rotate(-52.819 91.63 50.773)" fill="#fff"/><circle cx="83.457" cy="43.571" r="11.717" transform="rotate(-18.656 83.457 43.57)" stroke="#fff" stroke-width="3.407"/><defs><linearGradient id="ga" x1="113.653" y1="20.54" x2="228.767" y2="61.601" gradientUnits="userSpaceOnUse"><stop stop-color="#3246F7"/><stop offset="1" stop-color="#478DF7"/></linearGradient><linearGradient id="gb" x1="45.282" y1="63.46" x2="91.583" y2="87.492" gradientUnits="userSpaceOnUse"><stop stop-color="#3246F7"/><stop offset="1" stop-color="#478DF7"/></linearGradient><linearGradient id="gc" x1="56.464" y1="98.447" x2="62.473" y2="99.337" gradientUnits="userSpaceOnUse"><stop stop-color="#3246F7"/><stop offset="1" stop-color="#478DF7"/></linearGradient><linearGradient id="gd" x1="48.452" y1="88.162" x2="54.563" y2="88.582" gradientUnits="userSpaceOnUse"><stop stop-color="#3246F7"/><stop offset="1" stop-color="#478DF7"/></linearGradient><linearGradient id="ge" x1="40.471" y1="71.707" x2="46.603" y2="71.934" gradientUnits="userSpaceOnUse"><stop stop-color="#3246F7"/><stop offset="1" stop-color="#478DF7"/></linearGradient><linearGradient id="gf" x1="64.444" y1="92.961" x2="70.533" y2="93.519" gradientUnits="userSpaceOnUse"><stop stop-color="#3246F7"/><stop offset="1" stop-color="#478DF7"/></linearGradient><linearGradient id="gg" x1="72.423" y1="85.418" x2="78.542" y2="85.787" gradientUnits="userSpaceOnUse"><stop stop-color="#3246F7"/><stop offset="1" stop-color="#478DF7"/></linearGradient><linearGradient id="gh" x1="80.404" y1="76.506" x2="86.533" y2="76.769" gradientUnits="userSpaceOnUse"><stop stop-color="#3246F7"/><stop offset="1" stop-color="#478DF7"/></linearGradient><linearGradient id="gi" x1="88.351" y1="81.993" x2="94.475" y2="82.311" gradientUnits="userSpaceOnUse"><stop stop-color="#3246F7"/><stop offset="1" stop-color="#478DF7"/></linearGradient></defs></svg><svg fill="none" viewBox="0 0 140 140" id="reasonIcon2" xmlns="http://www.w3.org/2000/svg"><path d="M26.074 57.149c-3.158-5.413-3.958-12.251-1.608-18.745 3.474-9.598 12.72-15.346 22.113-14.54l1.922-5.31C36.303 16.838 24.01 24.146 19.5 36.607c-2.787 7.7-2.027 15.786 1.427 22.373 2.598 5.307 6.945 1.053 5.147-1.831Zm21.09-28.04 9.9-2.097c1.44-.305 1.873-1.494.967-2.654l-6.304-8.074c-.907-1.16-2.055-.948-2.564.477l-3.686 10.32c-.511 1.424.244 2.332 1.686 2.027Z" fill="url(#ha)"/><path d="M115.053 85.276c2.159 5.884 1.747 12.756-1.706 18.736-5.103 8.84-15.215 12.877-24.32 10.436l-2.824 4.89c11.708 3.829 25.092-1.208 31.718-12.685 4.095-7.093 4.765-15.185 2.521-22.277-1.627-5.68-6.653-2.255-5.389.9Zm-25.681 23.906-10.114.327c-1.472.048-2.107 1.143-1.419 2.444l4.79 9.055c.69 1.3 1.857 1.293 2.608-.02l5.44-9.514c.752-1.312.168-2.338-1.305-2.292Z" fill="url(#hb)"/><path fill-rule="evenodd" clip-rule="evenodd" d="M63.822 50.911c1.956-5.027 4.485-9.458 6.979-12.947 2.445 3.42 4.923 7.745 6.862 12.65-.462.081-.927.157-1.394.226-4.002.59-8.185.69-12.447.071Zm-17.378-6.943c2.912 2.012 5.854 3.55 8.791 4.689a69.057 69.057 0 0 1 6.917-13.681 34.529 34.529 0 0 0-15.708 8.992Zm-5.413 6.99a34.411 34.411 0 0 0-4.739 17.482c0 6.24 1.653 12.094 4.546 17.147 3.85-2.734 7.77-4.783 11.698-6.255-1.35-6.26-1.378-12.442-.517-18.28.195-1.32.434-2.622.714-3.903-3.928-1.452-7.85-3.48-11.702-6.191Zm5.136 41.674a34.497 34.497 0 0 0 18.275 9.783c-4.171-4.77-7.185-9.695-9.254-14.645-3.015 1.172-6.034 2.767-9.02 4.862Zm30.97 9.811a34.505 34.505 0 0 0 18.581-9.975 59.998 59.998 0 0 0-9.446-4.362c-2.068 4.847-5.047 9.666-9.136 14.337Zm23.889-17.1a34.413 34.413 0 0 0 4.408-16.903 34.415 34.415 0 0 0-4.609-17.257 68.763 68.763 0 0 1-12.038 5.594c.315 1.4.583 2.827.796 4.274.878 5.953.832 12.263-.598 18.65a68.836 68.836 0 0 1 12.041 5.643Zm-5.605-41.235a34.53 34.53 0 0 0-15.996-9.17 69.085 69.085 0 0 1 6.814 13.376 59.944 59.944 0 0 0 9.182-4.206ZM77.64 85.791c-1.634 3.52-3.873 7.034-6.838 10.483-3.048-3.546-5.328-7.159-6.973-10.778 4.26-.617 8.441-.517 12.441.073.46.067.916.141 1.37.222Zm-.082-8.956c-5.281-.779-10.844-.83-16.491.167-1.023-5.025-1.006-9.969-.314-14.663.144-.976.318-1.943.518-2.897 5.577.96 11.07.9 16.287.131.91-.134 1.812-.29 2.704-.465.23 1.063.428 2.14.589 3.231.708 4.8.71 9.86-.384 15.002a57.716 57.716 0 0 0-2.909-.506Z" fill="url(#hc)"/><defs><linearGradient id="ha" x1="29.718" y1="11.013" x2="63.865" y2="30.497" gradientUnits="userSpaceOnUse"><stop stop-color="#3246F7"/><stop offset="1" stop-color="#478DF7"/></linearGradient><linearGradient id="hb" x1="103.372" y1="130.058" x2="73.172" y2="104.885" gradientUnits="userSpaceOnUse"><stop stop-color="#3246F7"/><stop offset="1" stop-color="#478DF7"/></linearGradient><linearGradient id="hc" x1="38.173" y1="38.642" x2="115.636" y2="60.461" gradientUnits="userSpaceOnUse"><stop stop-color="#3246F7"/><stop offset="1" stop-color="#478DF7"/></linearGradient></defs></svg><svg fill="none" viewBox="0 0 140 140" id="reasonIcon3" xmlns="http://www.w3.org/2000/svg"><path d="M56.025 108.065v-4.558C47.36 98.047 40.24 87.399 40.24 76.085c0-19.448 17.141-34.691 36.505-30.291 8.514 1.964 15.973 7.857 19.854 15.99 7.873 16.5-.415 34.023-12.583 41.684v4.557c0 1.14.414 3.772-3.617 3.772H59.642c-4.144.039-3.617-1.65-3.617-3.732Z" fill="url(#ia)" stroke="url(#ib)" stroke-width="5.893" stroke-linecap="round" stroke-linejoin="round"/><path d="M56.777 123.626a46.357 46.357 0 0 1 26.371 0" stroke="url(#ic)" stroke-width="5.893" stroke-linecap="round" stroke-linejoin="round"/><path d="m69.964 68.184-4.031 7.307c-.904 1.611-.15 2.947 1.62 2.947h4.784c1.808 0 2.524 1.335 1.62 2.946l-3.993 7.308" stroke="#fff" stroke-width="5.893" stroke-linecap="round" stroke-linejoin="round"/><path d="M30.71 74.91 15 73.762" stroke="url(#id)" stroke-width="3.398" stroke-linecap="round"/><path d="M109.291 74.91 125 73.762" stroke="url(#ie)" stroke-width="3.398" stroke-linecap="round"/><path d="M38.14 46.921 22.108 33.988" stroke="url(#if)" stroke-width="3.398" stroke-linecap="round"/><path d="m101.958 46.921 16.031-12.933" stroke="url(#ig)" stroke-width="3.398" stroke-linecap="round"/><path d="M69.75 33.96 69.973 17" stroke="url(#ih)" stroke-width="3.398" stroke-linecap="round"/><defs><linearGradient id="ia" x1="41.858" y1="48.695" x2="109.673" y2="65.299" gradientUnits="userSpaceOnUse"><stop stop-color="#3246F7"/><stop offset="1" stop-color="#478DF7"/></linearGradient><linearGradient id="ib" x1="41.858" y1="48.695" x2="109.673" y2="65.299" gradientUnits="userSpaceOnUse"><stop stop-color="#3246F7"/><stop offset="1" stop-color="#478DF7"/></linearGradient><linearGradient id="ic" x1="57.495" y1="121.816" x2="59.574" y2="129.689" gradientUnits="userSpaceOnUse"><stop stop-color="#3246F7"/><stop offset="1" stop-color="#478DF7"/></linearGradient><linearGradient id="id" x1="15.517" y1="73.985" x2="30.433" y2="74.359" gradientUnits="userSpaceOnUse"><stop stop-color="#3246F7"/><stop offset="1" stop-color="#478DF7"/></linearGradient><linearGradient id="ie" x1="124.483" y1="73.985" x2="109.567" y2="74.359" gradientUnits="userSpaceOnUse"><stop stop-color="#3246F7"/><stop offset="1" stop-color="#478DF7"/></linearGradient><linearGradient id="if" x1="22.482" y1="34.498" x2="30.58" y2="50.386" gradientUnits="userSpaceOnUse"><stop stop-color="#3246F7"/><stop offset="1" stop-color="#478DF7"/></linearGradient><linearGradient id="ig" x1="117.615" y1="34.498" x2="109.518" y2="50.386" gradientUnits="userSpaceOnUse"><stop stop-color="#3246F7"/><stop offset="1" stop-color="#478DF7"/></linearGradient><linearGradient id="ih" x1="69.844" y1="17.494" x2="62.932" y2="29.823" gradientUnits="userSpaceOnUse"><stop stop-color="#3246F7"/><stop offset="1" stop-color="#478DF7"/></linearGradient></defs></svg><svg fill="none" viewBox="0 0 602 150" id="requestArrow1" xmlns="http://www.w3.org/2000/svg"><path d="M12.5 6.5H320v142h282" stroke="#2699FF" stroke-width="2"/><circle cx="7" cy="7" r="6" transform="matrix(-1 0 0 1 14 0)" stroke="#2699FF" stroke-width="2"/></svg><svg fill="none" viewBox="0 0 602 150" id="requestArrow2" xmlns="http://www.w3.org/2000/svg"><path d="M589.5 6.5H282v142H0" stroke="#2699FF" stroke-width="2"/><circle cx="595" cy="7" r="6" stroke="#2699FF" stroke-width="2"/></svg><svg fill="none" viewBox="0 0 150 655" id="requestArrow3" xmlns="http://www.w3.org/2000/svg"><path d="M143 13.976V333.19H1V655" stroke="#2699FF" stroke-width="2"/><path d="M142.5 1.998c-3.279 0-6 2.77-6 6.267 0 3.496 2.721 6.266 6 6.266s6-2.77 6-6.266c0-3.497-2.721-6.267-6-6.267Z" stroke="#2699FF" stroke-width="2"/></svg><svg fill="none" viewBox="0 0 173 141" id="stepIcon1" xmlns="http://www.w3.org/2000/svg"><path fill="#003AD0" d="M0 26h147.921v114.046H0z"/><path fill="url(#ma)" d="M29 42h90.333v81.3H29z"/><path d="M38.898 88.934h62.726M38.898 75.875h62.726M38.898 62.813h62.726" stroke="#F1F2F6" stroke-width="5.702"/><path fill="#2656FF" d="M39.162 104.105h41.779v9.033H39.162z"/><circle cx="150.116" cy="22.521" r="22.521" fill="#73BDFF"/><path d="m140.263 22.522 7.038 7.038 14.075-14.076" stroke="#F1F2F6" stroke-width="4.223"/><defs><linearGradient id="ma" x1="31.458" y1="46.462" x2="131.364" y2="76.99" gradientUnits="userSpaceOnUse"><stop stop-color="#5768FC"/><stop offset="1" stop-color="#6DA7FE"/></linearGradient></defs></svg><svg fill="none" viewBox="0 0 200 200" id="stepIcon2" xmlns="http://www.w3.org/2000/svg"><rect x="63.183" y="31" width="121.83" height="67.327" rx="10.687" transform="rotate(21 63.183 31)" fill="#003CD7"/><path fill="#fff" d="m57.461 45.961 113.738 43.66-3.447 8.98L54.014 54.94z"/><path fill="url(#na)" d="M23 79.094h139.998v89.77H23z"/><path d="M122.388 123.976c0-5.902 4.784-10.687 10.687-10.687h29.923v21.374h-29.923c-5.903 0-10.687-4.785-10.687-10.687Z" fill="#156FED"/><circle cx="133.075" cy="123.976" r="5.343" fill="#F1F2F6"/><path d="M44.055 144.153h2.813v-2.465h-2.813v-3.097h2.813v-11.282h8.122c1.243 0 2.37.126 3.381.379 1.012.232 1.876.632 2.592 1.201.716.548 1.264 1.275 1.643 2.181.4.906.6 2.022.6 3.35v.158c0 1.095-.21 2.107-.631 3.034-.422.927-1.001 1.696-1.739 2.307-.737.589-1.622 1.032-2.654 1.327-1.033.295-2.15.442-3.35.442h-4.298v2.465h6.352v2.908h-6.352v2.591h-3.666v-2.591h-2.813v-2.908Zm10.619-5.562c.674 0 1.296-.074 1.864-.221a4.512 4.512 0 0 0 1.549-.695 3.3 3.3 0 0 0 1.043-1.233c.274-.505.421-1.127.442-1.864 0-.78-.105-1.423-.316-1.928-.21-.527-.526-.938-.948-1.233-.4-.316-.895-.526-1.485-.632-.59-.126-1.275-.189-2.054-.189h-4.235v7.995h4.14Z" fill="#73BDFF"/><defs><linearGradient id="na" x1="26.809" y1="84.02" x2="169.798" y2="145.346" gradientUnits="userSpaceOnUse"><stop stop-color="#3246F7"/><stop offset="1" stop-color="#478DF7"/></linearGradient></defs></svg><svg fill="none" viewBox="0 0 200 200" id="stepIcon3" xmlns="http://www.w3.org/2000/svg"><path fill-rule="evenodd" clip-rule="evenodd" d="M34.42 31A7.42 7.42 0 0 0 27 38.42V158.014c0 6.146 4.983 11.129 11.129 11.129h122.903c6.146 0 11.129-4.983 11.129-11.129V59.942c0-6.147-4.983-11.129-11.129-11.129h-91.63v-.003l-1.308-.086c-7.049-.45-10.53-.673-10.887-9.334l-.012.057A8.903 8.903 0 0 0 48.304 31H34.419Z" fill="#73BDFF"/><path fill="#003CD7" d="M32.034 57.855h127.648v98.416H32.034z"/><path fill="#2699FF" d="M36.23 63.73h127.648v98.416H36.23z"/><path fill="#003CD7" d="M40.425 69.606h127.648v98.416H40.425z"/><path d="M27 98.972c0-10.196 8.265-18.46 18.46-18.46h109.08c10.195 0 18.46 8.264 18.46 18.46v70.482H27V98.971Z" fill="url(#oa)"/><defs><linearGradient id="oa" x1="30.973" y1="85.393" x2="177.633" y2="151.6" gradientUnits="userSpaceOnUse"><stop stop-color="#3246F7"/><stop offset="1" stop-color="#478DF7"/></linearGradient></defs></svg><svg fill="none" viewBox="0 0 289 223" id="tabletArrow" xmlns="http://www.w3.org/2000/svg"><path d="M7.605 13.426v108.8H288v99.778" stroke="#2699FF" stroke-width="2"/><path d="M7.5 1.002c-3.279 0-6 2.77-6 6.266 0 3.497 2.721 6.267 6 6.267s6-2.77 6-6.267c0-3.496-2.721-6.266-6-6.266Z" stroke="#2699FF" stroke-width="2"/></svg><svg viewBox="0 0 22 25" id="upArrow" xmlns="http://www.w3.org/2000/svg"><path d="m12.024 24.432-2.59.002-.004-19.28L1.986 12.6.21 10.79 10.728.272l10.52 10.52-1.81 1.812-7.418-7.45.004 19.278Z"/></svg><svg viewBox="0 0 18 18" id="whiteArrow" xmlns="http://www.w3.org/2000/svg"><path d="M1.833 18 0 16.17 13.63 2.534H3.101L3.125 0H18v14.879h-2.561l.023-10.514L1.832 18Z"/></svg></svg>