<?xml version="1.0" encoding="utf-8"?><svg viewBox="0 0 213 54" xmlns="http://www.w3.org/2000/svg" xmlns:xlink="http://www.w3.org/1999/xlink"><style>:root>svg{display:none}:root>svg:target{display:block}</style><svg fill="none" viewBox="0 0 213 54" id="logo" xmlns="http://www.w3.org/2000/svg"><g clip-path="url(#aa)" fill="#fff"><path d="M72.211 24.456a10.71 10.71 0 0 1-3.427-.542 7.791 7.791 0 0 1-2.818-1.64c-.801-.733-1.434-1.664-1.895-2.791-.461-1.127-.693-2.447-.693-3.956v-.657c0-1.445.224-2.703.676-3.776.45-1.07 1.056-1.964 1.813-2.675a7.452 7.452 0 0 1 2.702-1.607 10.068 10.068 0 0 1 3.313-.542c2.813 0 4.938.721 6.377 2.166 1.44 1.444 2.158 3.534 2.158 6.27v1.805H67.83c0 .787.132 1.46.395 2.02.263.558.597 1.012 1.005 1.362.407.35.874.602 1.401.754a5.626 5.626 0 0 0 1.581.229c1.1 0 1.95-.169 2.553-.51.605-.338 1.017-.803 1.236-1.394h4.087c-.177.897-.49 1.69-.94 2.38a6.162 6.162 0 0 1-1.68 1.723c-.671.46-1.45.804-2.34 1.035-.89.229-1.862.344-2.918.344l.002.002ZM67.83 13.524h8.338c0-.7-.11-1.285-.329-1.756a3.121 3.121 0 0 0-.89-1.148 3.356 3.356 0 0 0-1.301-.624 6.72 6.72 0 0 0-1.598-.182c-.527 0-1.038.066-1.533.198a3.7 3.7 0 0 0-1.335.658 3.456 3.456 0 0 0-.955 1.164c-.243.47-.374 1.035-.396 1.69h-.001ZM90.963 24.456c-1.23 0-2.373-.187-3.427-.559a7.399 7.399 0 0 1-2.719-1.657c-.757-.732-1.35-1.657-1.78-2.774-.427-1.117-.643-2.43-.643-3.939v-.657c0-1.4.232-2.631.694-3.693.461-1.062 1.082-1.958 1.862-2.692a7.734 7.734 0 0 1 2.735-1.657 9.701 9.701 0 0 1 3.28-.558c1.23 0 2.312.164 3.246.492.934.328 1.73.776 2.39 1.346a6.238 6.238 0 0 1 1.55 2.003c.373.767.614 1.588.724 2.463h-4.449c-.242-.81-.627-1.45-1.152-1.92-.528-.472-1.296-.706-2.307-.706-.572 0-1.105.099-1.598.295a3.541 3.541 0 0 0-1.301.903c-.374.404-.671.913-.89 1.527-.22.613-.33 1.346-.33 2.199v.657c0 .92.106 1.707.313 2.364.208.657.5 1.198.873 1.624.374.427.813.738 1.319.936a4.394 4.394 0 0 0 1.614.295c.878 0 1.62-.218 2.224-.658.605-.437 1.017-1.084 1.235-1.937h4.45c-.111.963-.38 1.833-.808 2.61a6.645 6.645 0 0 1-1.664 1.986 7.421 7.421 0 0 1-2.39 1.264c-.911.294-1.928.443-3.047.443h-.004ZM109.418 24.456c-1.185 0-2.307-.182-3.362-.542a7.725 7.725 0 0 1-2.785-1.657c-.802-.744-1.434-1.674-1.895-2.791-.462-1.117-.693-2.43-.693-3.939v-.657c0-1.423.231-2.67.693-3.743.461-1.07 1.092-1.964 1.895-2.675a8.325 8.325 0 0 1 2.785-1.624 10.04 10.04 0 0 1 3.362-.558c1.188 0 2.307.18 3.363.542a7.973 7.973 0 0 1 2.785 1.624c.801.721 1.434 1.62 1.895 2.691.461 1.073.691 2.32.691 3.743v.657c0 1.49-.23 2.796-.691 3.923-.461 1.128-1.094 2.063-1.895 2.807a7.725 7.725 0 0 1-2.785 1.657c-1.056.36-2.175.542-3.363.542Zm0-3.677c.614 0 1.186-.11 1.714-.328a3.455 3.455 0 0 0 1.351-1.001c.373-.45.669-1.002.89-1.658.218-.657.329-1.411.329-2.265v-.657c0-.787-.111-1.489-.329-2.1-.221-.612-.517-1.126-.89-1.544a3.706 3.706 0 0 0-1.351-.952 4.452 4.452 0 0 0-1.714-.328c-.614 0-1.185.11-1.713.328-.528.22-.978.537-1.351.952-.373.416-.671.93-.89 1.544-.22.613-.329 1.313-.329 2.1v.657c0 .876.11 1.641.329 2.298.219.658.517 1.203.89 1.641.373.438.823.767 1.351.985.528.22 1.098.328 1.713.328ZM120.953 24.062V6.663h4.021v2.659c.417-.831 1.104-1.547 2.06-2.15.956-.602 2.225-.902 3.807-.902 2.131 0 3.725.569 4.78 1.706 1.055 1.139 1.583 2.78 1.583 4.924v11.16h-4.351V13.883c0-1.313-.276-2.298-.824-2.953-.55-.658-1.472-.986-2.768-.986-.682 0-1.274.11-1.78.328-.506.22-.917.51-1.235.87-.318.36-.555.782-.708 1.263-.154.482-.23.975-.23 1.478V24.06h-4.349l-.006.002ZM148.569 24.456c-1.186 0-2.307-.182-3.362-.542a7.72 7.72 0 0 1-2.786-1.657c-.801-.744-1.433-1.674-1.895-2.791-.461-1.117-.691-2.43-.691-3.939v-.657c0-1.423.23-2.67.691-3.743.462-1.07 1.092-1.964 1.895-2.675a8.32 8.32 0 0 1 2.786-1.624 10.037 10.037 0 0 1 3.362-.558c1.187 0 2.307.18 3.362.542a7.964 7.964 0 0 1 2.785 1.624c.802.721 1.434 1.62 1.896 2.691.461 1.073.691 2.32.691 3.743v.657c0 1.49-.23 2.796-.691 3.923-.462 1.128-1.094 2.063-1.896 2.807a7.717 7.717 0 0 1-2.785 1.657c-1.055.36-2.175.542-3.362.542Zm0-3.677c.614 0 1.186-.11 1.713-.328a3.448 3.448 0 0 0 1.351-1.001c.374-.45.67-1.002.89-1.658.219-.657.329-1.411.329-2.265v-.657c0-.787-.11-1.489-.329-2.1-.22-.612-.516-1.126-.89-1.544a3.697 3.697 0 0 0-1.351-.952 4.443 4.443 0 0 0-1.713-.328c-.614 0-1.186.11-1.713.328a3.71 3.71 0 0 0-1.352.952c-.373.416-.671.93-.889 1.544-.221.613-.329 1.313-.329 2.1v.657c0 .876.11 1.641.329 2.298.218.658.516 1.203.889 1.641.374.438.824.767 1.352.985.527.22 1.099.328 1.713.328ZM160.104 24.062V6.663h4.087v2.758c.395-.875 1.017-1.619 1.862-2.232.846-.612 1.885-.92 3.114-.92 1.429 0 2.532.279 3.313.837.78.559 1.335 1.308 1.664 2.249.483-.897 1.175-1.635 2.075-2.216.901-.58 1.989-.87 3.263-.87 1.868 0 3.296.532 4.285 1.592.99 1.062 1.484 2.686 1.484 4.874V24.06H180.9V13.786c0-1.4-.226-2.391-.675-2.97-.45-.58-1.169-.87-2.158-.87-.44 0-.851.088-1.236.262a3.036 3.036 0 0 0-1.022.771 3.685 3.685 0 0 0-.693 1.214 4.793 4.793 0 0 0-.246 1.591v10.274h-4.351V13.784c0-1.4-.23-2.391-.692-2.97-.461-.58-1.185-.87-2.174-.87-.44 0-.851.088-1.236.262a3.037 3.037 0 0 0-1.022.771 3.646 3.646 0 0 0-.691 1.214 4.793 4.793 0 0 0-.246 1.591v10.274h-4.35l-.004.006ZM191.215 4.794c-.812 0-1.456-.23-1.928-.69-.473-.46-.708-1.03-.708-1.707 0-.678.235-1.275.708-1.723.472-.449 1.114-.674 1.928-.674.815 0 1.456.229 1.929.688.472.46.707 1.03.707 1.707 0 .678-.237 1.274-.707 1.723-.473.449-1.116.674-1.929.674v.002Zm-2.174 19.268V6.665h4.351v17.399h-4.351v-.002ZM205.089 24.456c-1.23 0-2.373-.187-3.427-.559a7.391 7.391 0 0 1-2.719-1.657c-.757-.732-1.351-1.657-1.779-2.774-.428-1.117-.643-2.43-.643-3.939v-.657c0-1.4.229-2.631.691-3.693.461-1.062 1.082-1.958 1.862-2.692a7.729 7.729 0 0 1 2.735-1.657 9.709 9.709 0 0 1 3.28-.558c1.23 0 2.313.164 3.246.492.934.328 1.73.776 2.39 1.346a6.238 6.238 0 0 1 1.55 2.003 7.82 7.82 0 0 1 .724 2.463h-4.448c-.243-.81-.627-1.45-1.153-1.92-.528-.472-1.296-.706-2.307-.706-.572 0-1.103.099-1.598.295a3.542 3.542 0 0 0-1.301.903c-.373.404-.671.913-.89 1.527-.221.613-.329 1.346-.329 2.199v.657c0 .92.105 1.707.312 2.364.208.657.5 1.198.874 1.624.373.427.812.738 1.318.936a4.39 4.39 0 0 0 1.614.295c.879 0 1.619-.218 2.224-.658.605-.437 1.017-1.084 1.236-1.937h4.448c-.11.963-.378 1.833-.807 2.61a6.641 6.641 0 0 1-1.663 1.986 7.42 7.42 0 0 1-2.39 1.264c-.912.294-1.929.443-3.048.443h-.002ZM70.794 54.002c-1.122 0-2.136-.192-3.048-.575a6.374 6.374 0 0 1-2.34-1.673c-.65-.732-1.15-1.663-1.5-2.79-.352-1.127-.528-2.425-.528-3.89v-.657c0-1.4.17-2.631.511-3.693.34-1.062.835-1.96 1.483-2.692a6.21 6.21 0 0 1 2.34-1.657c.912-.372 1.94-.559 3.082-.559 1.141 0 2.18.253 3.114.755a5.942 5.942 0 0 1 2.257 2.133v-8.075h4.35v22.978h-4.02v-2.659c-.44.81-1.15 1.522-2.126 2.133-.978.612-2.169.92-3.575.92v.002Zm1.055-3.643c.614 0 1.186-.105 1.713-.312a3.754 3.754 0 0 0 1.368-.919c.384-.404.686-.892.906-1.461.22-.57.33-1.214.33-1.937v-1.97c0-.678-.11-1.28-.33-1.806a4.184 4.184 0 0 0-.906-1.362 3.623 3.623 0 0 0-1.368-.853 5.146 5.146 0 0 0-1.713-.279c-.614 0-1.136.105-1.63.311a3.48 3.48 0 0 0-1.286.936c-.362.416-.638.93-.823 1.544-.188.613-.28 1.335-.28 2.166v.657c0 .875.1 1.64.296 2.298.199.657.478 1.203.84 1.64.363.438.79.772 1.285 1.002a3.76 3.76 0 0 0 1.598.345ZM89.414 54.001c-.945 0-1.785-.143-2.52-.427-.738-.283-1.357-.666-1.863-1.148a4.745 4.745 0 0 1-1.152-1.723 5.903 5.903 0 0 1-.396-2.182c0-1.729.528-3.025 1.583-3.89 1.055-.864 2.614-1.296 4.68-1.296h5.209v-.886c0-1.203-.28-2.036-.84-2.494-.561-.458-1.357-.69-2.39-.69-.967 0-1.68.17-2.142.509a1.782 1.782 0 0 0-.757 1.362h-4.35c.044-.766.24-1.472.594-2.117a5.186 5.186 0 0 1 1.467-1.673c.627-.471 1.39-.843 2.29-1.115.901-.273 1.923-.41 3.065-.41s2.136.12 3.048.36c.912.242 1.691.635 2.34 1.181.647.548 1.147 1.247 1.5 2.1.351.854.528 1.883.528 3.086v6.63c0 .92.016 1.723.05 2.413.032.69.093 1.363.181 2.02h-4.053c-.044-.416-.083-.793-.116-1.132-.033-.338-.05-.738-.05-1.197-.242.372-.55.727-.922 1.067-.374.34-.802.63-1.285.87a7.459 7.459 0 0 1-1.648.575 9.05 9.05 0 0 1-2.044.214l-.007-.007Zm1.318-3.25c.572 0 1.114-.083 1.63-.245a4.016 4.016 0 0 0 1.352-.722c.384-.317.685-.71.906-1.181.219-.47.33-.99.33-1.56v-.886h-4.383c-.857 0-1.512.203-1.962.608-.45.404-.677.935-.677 1.593 0 .7.22 1.274.66 1.723.44.448 1.153.673 2.142.673l.002-.003ZM109.651 53.803c-1.033 0-1.928-.104-2.685-.311-.758-.207-1.374-.548-1.846-1.018-.472-.471-.824-1.068-1.055-1.79-.23-.72-.346-1.609-.346-2.658v-8.207h-2.307v-3.61h2.307v-3.94h4.35v3.94h4.219v3.61h-4.219v7.55c0 .481.038.897.116 1.246.077.35.215.636.411.854.199.22.462.382.791.492.329.11.746.165 1.252.165.329 0 .66-.005.989-.016.329-.011.658-.039.989-.083v3.611c-.418.044-.851.083-1.302.115-.45.033-1.005.05-1.664.05ZM120.822 54.001c-.945 0-1.785-.143-2.52-.427-.736-.283-1.357-.666-1.863-1.148a4.752 4.752 0 0 1-1.152-1.723 5.9 5.9 0 0 1-.395-2.182c0-1.729.527-3.025 1.582-3.89 1.056-.864 2.615-1.296 4.681-1.296h5.208v-.886c0-1.203-.28-2.036-.84-2.494-.561-.458-1.357-.69-2.39-.69-.967 0-1.68.17-2.142.509a1.788 1.788 0 0 0-.757 1.362h-4.352a4.955 4.955 0 0 1 .594-2.117 5.183 5.183 0 0 1 1.467-1.673c.627-.471 1.39-.843 2.291-1.115.901-.273 1.923-.41 3.064-.41 1.142 0 2.136.12 3.048.36.912.242 1.692.635 2.34 1.181.648.548 1.148 1.247 1.501 2.1.351.854.527 1.883.527 3.086v6.63c0 .92.017 1.723.05 2.413.033.689.094 1.363.182 2.02h-4.054c-.044-.416-.082-.793-.116-1.132a12.569 12.569 0 0 1-.049-1.197c-.243.372-.55.727-.923 1.067-.373.34-.802.63-1.285.87a7.466 7.466 0 0 1-1.647.575 9.051 9.051 0 0 1-2.044.214l-.006-.007Zm1.318-3.25c.572 0 1.114-.083 1.631-.245a4.019 4.019 0 0 0 1.351-.722c.384-.317.686-.71.906-1.181.219-.47.329-.99.329-1.56v-.886h-4.382c-.857 0-1.511.203-1.962.608-.45.404-.674.935-.674 1.593 0 .7.218 1.274.659 1.723.44.448 1.153.673 2.142.673v-.003ZM6.734 6.668H0v6.707h6.734V6.668ZM20.199 6.664h-6.734v20.12h6.734V6.664ZM26.932 33.49v6.706H40.4v6.707H20.2v-20.12h6.732V13.372h6.734v6.707H40.4v6.706h-6.734v6.707h-6.734Z"/><path d="M47.132 13.371h-6.734v6.707h6.734v-6.707ZM13.466 26.784v6.707H6.734v6.705H0V20.078h6.734v6.706h6.732ZM47.132 33.492h-6.734V40.2h6.734v-6.707ZM13.467 40.2H6.733v6.706h6.734V40.2Z"/><path d="M20.199 46.902h-6.734v6.702h6.734v-6.702ZM47.132 46.902h-6.734v6.702h6.734v-6.702Z"/></g><defs><clipPath id="aa"><path fill="#fff" d="M0 0h213v54H0z"/></clipPath></defs></svg></svg>