<svg width="213" height="54" viewBox="0 0 213 54" fill="none" xmlns="http://www.w3.org/2000/svg">
<g clip-path="url(#clip0_381_4867)">
<path d="M72.2111 24.4557C71.0033 24.4557 69.8599 24.2744 68.7845 23.9137C67.7072 23.553 66.7678 23.0055 65.9663 22.2731C65.1648 21.5406 64.5324 20.6104 64.071 19.4825C63.6096 18.3564 63.3779 17.0362 63.3779 15.5274V14.8701C63.3779 13.4253 63.6022 12.1674 64.0544 11.0944C64.5048 10.0232 65.1096 9.12966 65.867 8.4192C66.6244 7.70875 67.5252 7.17225 68.5694 6.81153C69.6135 6.45081 70.7165 6.26953 71.882 6.26953C74.6947 6.26953 76.8198 6.99097 78.2592 8.43568C79.6986 9.8804 80.4174 11.9696 80.4174 14.7053V16.5107H67.8285C67.8285 17.298 67.9609 17.9719 68.2238 18.5304C68.4866 19.0888 68.8212 19.5429 69.2293 19.8927C69.6356 20.2424 70.1025 20.4951 70.6301 20.6471C71.1577 20.8009 71.6853 20.876 72.2111 20.876C73.3104 20.876 74.1616 20.7075 74.7645 20.3669C75.3694 20.0282 75.7811 19.5631 75.9999 18.9716H80.0865C79.91 19.8689 79.5975 20.6617 79.1471 21.352C78.6967 22.0405 78.136 22.6155 77.4669 23.0751C76.7959 23.5347 76.0165 23.8789 75.1267 24.1096C74.2369 24.3385 73.2645 24.4539 72.2093 24.4539L72.2111 24.4557ZM67.8285 13.5242H76.1672C76.1672 12.8248 76.0569 12.2388 75.8381 11.7682C75.6175 11.2976 75.3216 10.9149 74.9484 10.6201C74.5752 10.3253 74.1414 10.1166 73.6468 9.99575C73.1523 9.8749 72.6192 9.81448 72.0493 9.81448C71.5217 9.81448 71.0107 9.8804 70.5162 10.0122C70.0217 10.1441 69.5768 10.362 69.1815 10.6696C68.7863 10.9772 68.4664 11.3654 68.2256 11.8341C67.9829 12.3047 67.8524 12.8687 67.8304 13.5242H67.8285Z" fill="white"/>
<path d="M90.963 24.4557C89.7331 24.4557 88.5897 24.2689 87.5363 23.8972C86.483 23.5255 85.5748 22.9725 84.8175 22.2401C84.0601 21.5077 83.4663 20.583 83.0379 19.466C82.6096 18.3491 82.3945 17.0362 82.3945 15.5274V14.8701C82.3945 13.4693 82.6262 12.2388 83.0876 11.1768C83.549 10.1148 84.1704 9.21938 84.9498 8.48512C85.7293 7.7527 86.6411 7.19971 87.6852 6.82801C88.7294 6.4563 89.8214 6.26953 90.9648 6.26953C92.1947 6.26953 93.2774 6.43433 94.2113 6.76209C95.1452 7.08985 95.9412 7.53846 96.6011 8.10792C97.2611 8.67738 97.7758 9.34389 98.1509 10.1111C98.524 10.8783 98.7649 11.6986 98.8752 12.5739H94.4264C94.1837 11.7646 93.7995 11.1237 93.2738 10.6531C92.7462 10.1825 91.9777 9.94814 90.9667 9.94814C90.3949 9.94814 89.8618 10.047 89.3692 10.2429C88.8746 10.4407 88.4408 10.741 88.0676 11.1457C87.6944 11.5503 87.3966 12.0594 87.1779 12.6728C86.9573 13.2862 86.8488 14.0186 86.8488 14.8719V15.5292C86.8488 16.4484 86.9536 17.2358 87.1613 17.8931C87.3691 18.5505 87.6614 19.0907 88.0345 19.5173C88.4077 19.9439 88.8471 20.2552 89.3526 20.453C89.8582 20.6507 90.3968 20.7478 90.9667 20.7478C91.8454 20.7478 92.5862 20.5299 93.191 20.0904C93.7959 19.6528 94.2076 19.0064 94.4264 18.1532H98.8752C98.7649 19.1163 98.4965 19.9861 98.0681 20.7624C97.6398 21.5388 97.0846 22.2016 96.4044 22.7491C95.7224 23.2966 94.9264 23.7178 94.0146 24.0126C93.1028 24.3074 92.0862 24.4557 90.9667 24.4557H90.963Z" fill="white"/>
<path d="M109.418 24.4557C108.233 24.4557 107.111 24.2744 106.056 23.9137C105.001 23.553 104.073 23 103.271 22.2566C102.469 21.5132 101.837 20.583 101.376 19.466C100.914 18.3491 100.683 17.0362 100.683 15.5274V14.8701C100.683 13.4473 100.914 12.2004 101.376 11.1274C101.837 10.0562 102.468 9.16262 103.271 8.45216C104.073 7.74171 105.001 7.19971 106.056 6.82801C107.111 6.4563 108.231 6.26953 109.418 6.26953C110.606 6.26953 111.725 6.45081 112.781 6.81153C113.836 7.17225 114.764 7.71424 115.566 8.43568C116.367 9.15712 117 10.0562 117.461 11.1274C117.922 12.2004 118.152 13.4473 118.152 14.8701V15.5274C118.152 17.0161 117.922 18.3234 117.461 19.4496C117 20.5775 116.367 21.5132 115.566 22.2566C114.764 23 113.836 23.553 112.781 23.9137C111.725 24.2744 110.606 24.4557 109.418 24.4557ZM109.418 20.7789C110.032 20.7789 110.604 20.669 111.132 20.4511C111.659 20.2332 112.11 19.8982 112.483 19.4496C112.856 19.0009 113.152 18.448 113.373 17.7924C113.591 17.1351 113.702 16.3807 113.702 15.5274V14.8701C113.702 14.0827 113.591 13.3814 113.373 12.7698C113.152 12.1582 112.856 11.6437 112.483 11.2262C112.11 10.8106 111.659 10.4938 111.132 10.2741C110.604 10.0562 110.032 9.94631 109.418 9.94631C108.804 9.94631 108.233 10.0562 107.705 10.2741C107.177 10.4938 106.727 10.8106 106.354 11.2262C105.981 11.6419 105.683 12.1564 105.464 12.7698C105.244 13.3832 105.135 14.0827 105.135 14.8701V15.5274C105.135 16.4027 105.245 17.168 105.464 17.8254C105.683 18.4827 105.981 19.0284 106.354 19.466C106.727 19.9037 107.177 20.2332 107.705 20.4511C108.233 20.6709 108.803 20.7789 109.418 20.7789Z" fill="white"/>
<path d="M120.953 24.062V6.66321H124.974V9.32192C125.391 8.49062 126.078 7.77467 127.034 7.17225C127.99 6.56983 129.259 6.26953 130.841 6.26953C132.972 6.26953 134.566 6.83899 135.621 7.97609C136.676 9.11501 137.204 10.7556 137.204 12.8998V24.0602H132.853V13.8831C132.853 12.5702 132.577 11.5851 132.029 10.9296C131.479 10.2722 130.557 9.94448 129.261 9.94448C128.579 9.94448 127.987 10.0543 127.481 10.2722C126.975 10.492 126.564 10.7813 126.246 11.142C125.928 11.5027 125.691 11.9239 125.538 12.4054C125.384 12.887 125.308 13.3796 125.308 13.8831V24.0602H120.959L120.953 24.062Z" fill="white"/>
<path d="M148.569 24.4557C147.383 24.4557 146.262 24.2744 145.207 23.9137C144.151 23.553 143.223 23 142.421 22.2566C141.62 21.5132 140.988 20.583 140.526 19.466C140.065 18.3491 139.835 17.0362 139.835 15.5274V14.8701C139.835 13.4473 140.065 12.2004 140.526 11.1274C140.988 10.0562 141.618 9.16262 142.421 8.45216C143.223 7.74171 144.151 7.19971 145.207 6.82801C146.262 6.4563 147.381 6.26953 148.569 6.26953C149.756 6.26953 150.876 6.45081 151.931 6.81153C152.986 7.17225 153.915 7.71424 154.716 8.43568C155.518 9.15712 156.15 10.0562 156.612 11.1274C157.073 12.2004 157.303 13.4473 157.303 14.8701V15.5274C157.303 17.0161 157.073 18.3234 156.612 19.4496C156.15 20.5775 155.518 21.5132 154.716 22.2566C153.915 23 152.986 23.553 151.931 23.9137C150.876 24.2744 149.756 24.4557 148.569 24.4557ZM148.569 20.7789C149.183 20.7789 149.755 20.669 150.282 20.4511C150.81 20.2332 151.26 19.8982 151.633 19.4496C152.007 19.0009 152.303 18.448 152.523 17.7924C152.742 17.1351 152.852 16.3807 152.852 15.5274V14.8701C152.852 14.0827 152.742 13.3814 152.523 12.7698C152.303 12.1582 152.007 11.6437 151.633 11.2262C151.26 10.8106 150.81 10.4938 150.282 10.2741C149.755 10.0562 149.183 9.94631 148.569 9.94631C147.955 9.94631 147.383 10.0562 146.856 10.2741C146.328 10.4938 145.878 10.8106 145.504 11.2262C145.131 11.6419 144.833 12.1564 144.615 12.7698C144.394 13.3832 144.286 14.0827 144.286 14.8701V15.5274C144.286 16.4027 144.396 17.168 144.615 17.8254C144.833 18.4827 145.131 19.0284 145.504 19.466C145.878 19.9037 146.328 20.2332 146.856 20.4511C147.383 20.6709 147.955 20.7789 148.569 20.7789Z" fill="white"/>
<path d="M160.104 24.062V6.66321H164.191V9.4208C164.586 8.54555 165.208 7.80213 166.053 7.18873C166.899 6.57715 167.938 6.26953 169.167 6.26953C170.596 6.26953 171.699 6.54785 172.48 7.10633C173.26 7.6648 173.815 8.41371 174.144 9.35488C174.627 8.45766 175.319 7.71974 176.219 7.13929C177.12 6.55884 178.208 6.26953 179.482 6.26953C181.35 6.26953 182.778 6.80054 183.767 7.86073C184.757 8.92275 185.251 10.5469 185.251 12.735V24.0602H180.9V13.7861C180.9 12.3853 180.674 11.3947 180.225 10.8161C179.775 10.2356 179.056 9.94631 178.067 9.94631C177.627 9.94631 177.216 10.0342 176.831 10.2082C176.447 10.3839 176.107 10.6403 175.809 10.979C175.513 11.3178 175.282 11.7224 175.116 12.193C174.951 12.6636 174.87 13.1946 174.87 13.7842V24.0583H170.519V13.7842C170.519 12.3835 170.289 11.3929 169.827 10.8142C169.366 10.2338 168.642 9.94448 167.653 9.94448C167.213 9.94448 166.802 10.0324 166.417 10.2063C166.033 10.3821 165.693 10.6385 165.395 10.9772C165.099 11.316 164.868 11.7206 164.704 12.1912C164.539 12.6618 164.458 13.1928 164.458 13.7824V24.0565H160.108L160.104 24.062Z" fill="white"/>
<path d="M191.215 4.79373C190.403 4.79373 189.759 4.56485 189.287 4.10342C188.814 3.64382 188.579 3.07436 188.579 2.39687C188.579 1.71937 188.814 1.12244 189.287 0.673833C189.759 0.225221 190.401 0 191.215 0C192.03 0 192.671 0.228883 193.144 0.688481C193.616 1.14808 193.851 1.71754 193.851 2.39504C193.851 3.07253 193.614 3.66946 193.144 4.11807C192.671 4.56668 192.028 4.7919 191.215 4.7919V4.79373ZM189.041 24.0621V6.66508H193.392V24.0639H189.041V24.0621Z" fill="white"/>
<path d="M205.089 24.4557C203.859 24.4557 202.716 24.2689 201.662 23.8972C200.607 23.5255 199.701 22.9725 198.943 22.2401C198.186 21.5077 197.592 20.583 197.164 19.466C196.736 18.3491 196.521 17.0362 196.521 15.5274V14.8701C196.521 13.4693 196.75 12.2388 197.212 11.1768C197.673 10.1148 198.294 9.21938 199.074 8.48512C199.853 7.7527 200.765 7.19971 201.809 6.82801C202.854 6.4563 203.946 6.26953 205.089 6.26953C206.319 6.26953 207.402 6.43433 208.335 6.76209C209.269 7.08985 210.065 7.53846 210.725 8.10792C211.385 8.67738 211.9 9.34389 212.275 10.1111C212.648 10.8783 212.889 11.6986 212.999 12.5739H208.551C208.308 11.7646 207.924 11.1237 207.398 10.6531C206.87 10.1825 206.102 9.94814 205.091 9.94814C204.519 9.94814 203.988 10.047 203.493 10.2429C202.999 10.4407 202.565 10.741 202.192 11.1457C201.819 11.5503 201.521 12.0594 201.302 12.6728C201.081 13.2862 200.973 14.0186 200.973 14.8719V15.5292C200.973 16.4484 201.078 17.2358 201.285 17.8931C201.493 18.5505 201.785 19.0907 202.159 19.5173C202.532 19.9439 202.971 20.2552 203.477 20.453C203.982 20.6507 204.521 20.7478 205.091 20.7478C205.97 20.7478 206.71 20.5299 207.315 20.0904C207.92 19.6528 208.332 19.0064 208.551 18.1532H212.999C212.889 19.1163 212.621 19.9861 212.192 20.7624C211.764 21.5388 211.209 22.2016 210.529 22.7491C209.847 23.2966 209.051 23.7178 208.139 24.0126C207.227 24.3074 206.21 24.4557 205.091 24.4557H205.089Z" fill="white"/>
<path d="M70.7938 54.0025C69.6724 54.0025 68.6576 53.8102 67.7458 53.4275C66.834 53.0448 66.0527 52.4864 65.4056 51.7539C64.7567 51.0215 64.2567 50.0913 63.9055 48.9634C63.5544 47.8373 63.3779 46.539 63.3779 45.0742V44.4168C63.3779 43.0161 63.5471 41.7856 63.889 40.7236C64.2291 39.6616 64.7236 38.7643 65.3725 38.0319C66.0196 37.2995 66.8009 36.7465 67.7127 36.3748C68.6245 36.0031 69.6522 35.8163 70.7938 35.8163C71.9354 35.8163 72.974 36.069 73.9079 36.5707C74.8418 37.0743 75.5936 37.7847 76.1654 38.7039V30.6289H80.5148V53.607H76.4944V50.9483C76.0551 51.7576 75.3455 52.4699 74.3693 53.0815C73.3913 53.693 72.2001 54.0006 70.7938 54.0006V54.0025ZM71.849 50.3587C72.463 50.3587 73.0347 50.2543 73.5623 50.0474C74.0899 49.8405 74.5458 49.5328 74.93 49.1282C75.3142 48.7235 75.6157 48.2364 75.8363 47.667C76.0551 47.0975 76.1654 46.453 76.1654 45.7297V43.7595C76.1654 43.082 76.0551 42.4796 75.8363 41.9541C75.6157 41.4285 75.3142 40.9744 74.93 40.5917C74.5458 40.2091 74.0899 39.9252 73.5623 39.7385C73.0347 39.5535 72.463 39.4601 71.849 39.4601C71.235 39.4601 70.7129 39.5645 70.2184 39.7714C69.7238 39.9802 69.2955 40.2914 68.9334 40.7071C68.5712 41.1228 68.2955 41.6373 68.1098 42.2507C67.9223 42.8641 67.8304 43.5855 67.8304 44.4168V45.0742C67.8304 45.9494 67.9296 46.7148 68.1263 47.3722C68.3249 48.0295 68.6043 48.5752 68.9665 49.0128C69.3286 49.4504 69.7569 49.7837 70.2514 50.0144C70.746 50.2433 71.2791 50.3587 71.849 50.3587Z" fill="white"/>
<path d="M89.4139 54.001C88.469 54.001 87.6288 53.8582 86.8935 53.5743C86.1563 53.2905 85.5368 52.9078 85.0313 52.4263C84.5257 51.9447 84.1415 51.3716 83.8786 50.7032C83.6158 50.0367 83.4834 49.308 83.4834 48.5206C83.4834 46.7921 84.011 45.4957 85.0662 44.6314C86.1214 43.7671 87.6803 43.335 89.7466 43.335H94.9546V42.4488C94.9546 41.2458 94.6752 40.4126 94.1145 39.9549C93.5538 39.4971 92.7578 39.2645 91.7246 39.2645C90.7577 39.2645 90.0444 39.4348 89.583 39.7736C89.1216 40.1123 88.8679 40.5664 88.8256 41.1359H84.4761C84.5202 40.3705 84.7169 39.6637 85.0699 39.0192C85.421 38.3747 85.91 37.8162 86.5369 37.3456C87.1637 36.875 87.9266 36.5033 88.8274 36.2305C89.7282 35.9576 90.7503 35.8203 91.8919 35.8203C93.0335 35.8203 94.0281 35.9412 94.9399 36.181C95.8517 36.4227 96.6311 36.8164 97.2801 37.3621C97.9272 37.9096 98.4272 38.609 98.7801 39.4623C99.1313 40.3156 99.3077 41.3446 99.3077 42.5477V49.1779C99.3077 50.0971 99.3243 50.901 99.3574 51.5913C99.3905 52.2816 99.4511 52.9536 99.5394 53.611H95.4859C95.4417 53.1953 95.4031 52.8181 95.37 52.4794C95.3369 52.1406 95.3204 51.7414 95.3204 51.2818C95.0778 51.6536 94.7707 52.0088 94.3976 52.3494C94.0244 52.6881 93.5961 52.9792 93.1126 53.2191C92.6291 53.4608 92.0794 53.6512 91.4654 53.7941C90.8496 53.9369 90.1694 54.0083 89.4212 54.0083L89.4139 54.001ZM90.7319 50.7508C91.3037 50.7508 91.846 50.6684 92.3625 50.5055C92.8791 50.3407 93.3295 50.1008 93.7137 49.784C94.0979 49.4673 94.3994 49.0736 94.62 48.603C94.8388 48.1324 94.9491 47.6124 94.9491 47.0429V46.1567H90.5665C89.7098 46.1567 89.0554 46.3599 88.605 46.7646C88.1546 47.1693 87.9285 47.7003 87.9285 48.3576C87.9285 49.0589 88.1472 49.6321 88.5884 50.0807C89.0278 50.5293 89.7411 50.7545 90.7301 50.7545L90.7319 50.7508Z" fill="white"/>
<path d="M109.651 53.8029C108.618 53.8029 107.723 53.6985 106.966 53.4916C106.208 53.2847 105.592 52.9441 105.12 52.4735C104.648 52.0029 104.296 51.406 104.065 50.6846C103.835 49.9631 103.719 49.0751 103.719 48.0259V39.819H101.412V36.2082H103.719V32.2695H108.069V36.2082H112.288V39.819H108.069V47.3685C108.069 47.8501 108.107 48.2657 108.185 48.6155C108.262 48.9652 108.4 49.2509 108.596 49.4687C108.795 49.6885 109.058 49.8514 109.387 49.9613C109.716 50.0712 110.133 50.1261 110.639 50.1261C110.968 50.1261 111.299 50.1206 111.628 50.1096C111.957 50.0986 112.286 50.0712 112.617 50.0272V53.6381C112.199 53.682 111.766 53.7205 111.315 53.7534C110.865 53.7864 110.31 53.8029 109.651 53.8029Z" fill="white"/>
<path d="M120.822 54.001C119.877 54.001 119.037 53.8582 118.302 53.5743C117.566 53.2905 116.945 52.9078 116.439 52.4263C115.934 51.9447 115.55 51.3716 115.287 50.7032C115.024 50.0367 114.892 49.308 114.892 48.5206C114.892 46.7921 115.419 45.4957 116.474 44.6314C117.53 43.7671 119.089 43.335 121.155 43.335H126.363V42.4488C126.363 41.2458 126.083 40.4126 125.523 39.9549C124.962 39.4971 124.166 39.2645 123.133 39.2645C122.166 39.2645 121.453 39.4348 120.991 39.7736C120.53 40.1123 120.278 40.5664 120.234 41.1359H115.882C115.927 40.3705 116.123 39.6637 116.476 39.0192C116.827 38.3747 117.316 37.8162 117.943 37.3456C118.57 36.875 119.333 36.5033 120.234 36.2305C121.135 35.9576 122.157 35.8203 123.298 35.8203C124.44 35.8203 125.434 35.9412 126.346 36.181C127.258 36.4227 128.038 36.8164 128.686 37.3621C129.334 37.9096 129.834 38.609 130.187 39.4623C130.538 40.3156 130.714 41.3446 130.714 42.5477V49.1779C130.714 50.0971 130.731 50.901 130.764 51.5913C130.797 52.2798 130.858 52.9536 130.946 53.611H126.892C126.848 53.1953 126.81 52.8181 126.776 52.4794C126.743 52.1406 126.727 51.7414 126.727 51.2818C126.484 51.6536 126.177 52.0088 125.804 52.3494C125.431 52.6881 125.002 52.9792 124.519 53.2191C124.035 53.4608 123.486 53.6512 122.872 53.7941C122.256 53.9369 121.576 54.0083 120.828 54.0083L120.822 54.001ZM122.14 50.7508C122.712 50.7508 123.254 50.6684 123.771 50.5055C124.287 50.3407 124.738 50.1008 125.122 49.784C125.506 49.4673 125.808 49.0736 126.028 48.603C126.247 48.1324 126.357 47.6124 126.357 47.0429V46.1567H121.975C121.118 46.1567 120.464 46.3599 120.013 46.7646C119.563 47.1693 119.339 47.7003 119.339 48.3576C119.339 49.0589 119.557 49.6321 119.998 50.0807C120.438 50.5293 121.151 50.7545 122.14 50.7545V50.7508Z" fill="white"/>
<path d="M6.7338 6.66797H0V13.3752H6.7338V6.66797Z" fill="white"/>
<path d="M20.1986 6.66406H13.4648V26.7838H20.1986V6.66406Z" fill="white"/>
<path d="M26.9322 33.4909V40.1962H40.3998V46.9034H20.2002V26.7837H26.9322V13.3711H33.666V20.0783H40.3998V26.7837H33.666V33.4909H26.9322Z" fill="white"/>
<path d="M47.1322 13.3711H40.3984V20.0783H47.1322V13.3711Z" fill="white"/>
<path d="M13.4658 26.7835V33.4907H6.7338V40.1961H0V20.0781H6.7338V26.7835H13.4658Z" fill="white"/>
<path d="M47.1322 33.4922H40.3984V40.1994H47.1322V33.4922Z" fill="white"/>
<path d="M13.4672 40.1992H6.7334V46.9064H13.4672V40.1992Z" fill="white"/>
<path d="M20.1986 46.9023H13.4648V53.6041H20.1986V46.9023Z" fill="white"/>
<path d="M47.1322 46.9023H40.3984V53.6041H47.1322V46.9023Z" fill="white"/>
</g>
<defs>
<clipPath id="clip0_381_4867">
<rect width="213" height="54" fill="white"/>
</clipPath>
</defs>
</svg>
