<svg width="140" height="140" viewBox="0 0 140 140" fill="none" xmlns="http://www.w3.org/2000/svg">
<path d="M26.0742 57.149C22.9163 51.7355 22.1163 44.8978 24.4664 38.4045C27.9402 28.8061 37.1863 23.0577 46.5794 23.864L48.5012 18.5543C36.3032 16.8383 24.01 24.1457 19.5 36.6071C16.713 44.3079 17.4731 52.3928 20.9266 58.9803C23.5245 64.2867 27.8722 60.0333 26.0742 57.149ZM47.1631 29.1082L57.0632 27.0123C58.5036 26.7072 58.9369 25.518 58.0311 24.3579L51.7273 16.2836C50.8197 15.1241 49.6719 15.336 49.1626 16.7609L45.4772 27.0813C44.966 28.5047 45.7213 29.4128 47.1631 29.1082Z" fill="url(#paint0_linear_318_1245)"/>
<path d="M115.053 85.2762C117.212 91.1597 116.8 98.0317 113.347 104.012C108.244 112.852 98.1324 116.889 89.0265 114.448L86.2031 119.338C97.9108 123.167 111.295 118.13 117.921 106.653C122.016 99.5605 122.686 91.4676 120.442 84.3764C118.815 78.6965 113.789 82.1212 115.053 85.2762ZM89.3719 109.182L79.2576 109.509C77.786 109.557 77.1508 110.652 77.839 111.953L82.6286 121.008C83.3187 122.308 84.4859 122.301 85.2372 120.988L90.6761 111.474C91.429 110.162 90.8448 109.136 89.3719 109.182Z" fill="url(#paint1_linear_318_1245)"/>
<path fill-rule="evenodd" clip-rule="evenodd" d="M63.8223 50.9114C65.7775 45.884 68.3066 41.4526 70.801 37.9635C73.246 41.3835 75.7243 45.7087 77.6628 50.6132C77.2008 50.6952 76.7363 50.7708 76.2694 50.8397C72.2673 51.4299 68.0836 51.5291 63.8223 50.9114ZM46.4436 43.9685C49.3561 45.9799 52.2976 47.5189 55.2352 48.6567C57.1567 43.485 59.6156 38.8461 62.1518 34.9758C56.1175 36.5421 50.7237 39.6975 46.4436 43.9685ZM41.0314 50.958C38.0192 56.0871 36.292 62.0617 36.292 68.4398C36.292 74.6798 37.9452 80.5337 40.8376 85.5873C44.6875 82.8533 48.6087 80.8036 52.5363 79.332C51.1855 73.0718 51.1579 66.8899 52.0188 61.0515C52.2135 59.7317 52.4532 58.43 52.7326 57.1494C48.8052 55.6971 44.8832 53.6687 41.0314 50.958ZM46.1671 92.6321C51.0189 97.5841 57.3482 101.083 64.4416 102.415C60.2708 97.6455 57.2574 92.7202 55.1881 87.7698C52.1732 88.9419 49.1544 90.5371 46.1671 92.6321ZM77.1365 102.443C84.3679 101.117 90.8126 97.5414 95.7182 92.4681C92.8908 90.8532 89.7075 89.3384 86.272 88.1059C84.2036 92.9526 81.2252 97.7723 77.1365 102.443ZM101.026 85.3439C103.833 80.3461 105.434 74.5799 105.434 68.4398C105.434 62.1547 103.756 56.2614 100.825 51.1829C97.2729 53.2702 93.2131 55.2269 88.787 56.7772C89.1019 58.1776 89.3697 59.6036 89.5832 61.0515C90.4611 67.0045 90.4152 73.3145 88.9846 79.7006C93.4175 81.2693 97.4789 83.2434 101.026 85.3439ZM95.4215 44.1085C91.0845 39.7311 85.5854 36.5072 79.4252 34.9375C81.9142 38.73 84.3302 43.2632 86.2386 48.3143C89.5672 47.1225 92.6595 45.6654 95.4215 44.1085ZM77.6388 85.7908C76.0048 89.3114 73.7664 92.8247 70.801 96.2742C67.7529 92.7284 65.4729 89.1153 63.8279 85.496C68.0873 84.8793 72.269 84.9786 76.2694 85.5686C76.7282 85.6362 77.1847 85.7104 77.6388 85.7908ZM77.5573 76.8352C72.2758 76.0564 66.7133 76.0047 61.066 77.0019C60.0432 71.9765 60.06 67.033 60.7522 62.3394C60.8962 61.3627 61.0698 60.3963 61.2698 59.4419C66.8471 60.4022 72.3394 60.3425 77.5573 59.573C78.4675 59.4388 79.3691 59.2831 80.2611 59.1078C80.4913 60.1705 80.689 61.2485 80.8499 62.3394C81.5576 67.1386 81.5593 72.1989 80.4655 77.341C79.5069 77.1491 78.5371 76.9797 77.5573 76.8352Z" fill="url(#paint2_linear_318_1245)"/>
<defs>
<linearGradient id="paint0_linear_318_1245" x1="29.718" y1="11.0127" x2="63.8655" y2="30.4975" gradientUnits="userSpaceOnUse">
<stop stop-color="#3246F7"/>
<stop offset="1" stop-color="#478DF7"/>
</linearGradient>
<linearGradient id="paint1_linear_318_1245" x1="103.372" y1="130.058" x2="73.1722" y2="104.885" gradientUnits="userSpaceOnUse">
<stop stop-color="#3246F7"/>
<stop offset="1" stop-color="#478DF7"/>
</linearGradient>
<linearGradient id="paint2_linear_318_1245" x1="38.1734" y1="38.6421" x2="115.636" y2="60.4614" gradientUnits="userSpaceOnUse">
<stop stop-color="#3246F7"/>
<stop offset="1" stop-color="#478DF7"/>
</linearGradient>
</defs>
</svg>
