<svg width="140" height="140" viewBox="0 0 140 140" fill="none" xmlns="http://www.w3.org/2000/svg">
<rect x="108.178" y="18.5549" width="102.198" height="77.6236" rx="5.96154" transform="rotate(90 108.178 18.5549)" stroke="url(#paint0_linear_318_1243)" stroke-width="5.10989"/>
<path d="M43.96 62.0469L59.5569 87.8L74.4285 78.3693L83.1337 66.0368L92.5645 72.5658" stroke="url(#paint1_linear_318_1243)" stroke-width="1.7033" stroke-linecap="round"/>
<rect x="56.3262" y="97.9297" width="5.07808" height="9.43073" fill="url(#paint2_linear_318_1243)"/>
<rect x="48.3135" y="87.0469" width="5.07808" height="20.3123" fill="url(#paint3_linear_318_1243)"/>
<rect x="40.333" y="69.6367" width="5.07808" height="37.7229" fill="url(#paint4_linear_318_1243)"/>
<rect x="64.3057" y="92.125" width="5.07808" height="15.2342" fill="url(#paint5_linear_318_1243)"/>
<rect x="72.2852" y="84.1445" width="5.07808" height="23.2141" fill="url(#paint6_linear_318_1243)"/>
<rect x="80.2656" y="74.7148" width="5.07808" height="32.6448" fill="url(#paint7_linear_318_1243)"/>
<rect x="88.2129" y="80.5195" width="5.07808" height="26.8413" fill="url(#paint8_linear_318_1243)"/>
<rect x="91.6309" y="50.7734" width="3.62506" height="23.2536" rx="1.81253" transform="rotate(-52.8189 91.6309 50.7734)" fill="white"/>
<circle cx="83.4568" cy="43.5709" r="11.7174" transform="rotate(-18.6558 83.4568 43.5709)" stroke="white" stroke-width="3.40659"/>
<defs>
<linearGradient id="paint0_linear_318_1243" x1="113.653" y1="20.5402" x2="228.767" y2="61.6009" gradientUnits="userSpaceOnUse">
<stop stop-color="#3246F7"/>
<stop offset="1" stop-color="#478DF7"/>
</linearGradient>
<linearGradient id="paint1_linear_318_1243" x1="45.2825" y1="63.4602" x2="91.5833" y2="87.4919" gradientUnits="userSpaceOnUse">
<stop stop-color="#3246F7"/>
<stop offset="1" stop-color="#478DF7"/>
</linearGradient>
<linearGradient id="paint2_linear_318_1243" x1="56.4644" y1="98.4472" x2="62.4732" y2="99.337" gradientUnits="userSpaceOnUse">
<stop stop-color="#3246F7"/>
<stop offset="1" stop-color="#478DF7"/>
</linearGradient>
<linearGradient id="paint3_linear_318_1243" x1="48.4517" y1="88.1616" x2="54.5633" y2="88.5818" gradientUnits="userSpaceOnUse">
<stop stop-color="#3246F7"/>
<stop offset="1" stop-color="#478DF7"/>
</linearGradient>
<linearGradient id="paint4_linear_318_1243" x1="40.4712" y1="71.7069" x2="46.6034" y2="71.9339" gradientUnits="userSpaceOnUse">
<stop stop-color="#3246F7"/>
<stop offset="1" stop-color="#478DF7"/>
</linearGradient>
<linearGradient id="paint5_linear_318_1243" x1="64.4438" y1="92.961" x2="70.5332" y2="93.5192" gradientUnits="userSpaceOnUse">
<stop stop-color="#3246F7"/>
<stop offset="1" stop-color="#478DF7"/>
</linearGradient>
<linearGradient id="paint6_linear_318_1243" x1="72.4233" y1="85.4185" x2="78.5418" y2="85.7866" gradientUnits="userSpaceOnUse">
<stop stop-color="#3246F7"/>
<stop offset="1" stop-color="#478DF7"/>
</linearGradient>
<linearGradient id="paint7_linear_318_1243" x1="80.4038" y1="76.5063" x2="86.5332" y2="76.7685" gradientUnits="userSpaceOnUse">
<stop stop-color="#3246F7"/>
<stop offset="1" stop-color="#478DF7"/>
</linearGradient>
<linearGradient id="paint8_linear_318_1243" x1="88.3511" y1="81.9925" x2="94.4751" y2="82.3112" gradientUnits="userSpaceOnUse">
<stop stop-color="#3246F7"/>
<stop offset="1" stop-color="#478DF7"/>
</linearGradient>
</defs>
</svg>
