<svg width="200" height="200" viewBox="0 0 200 200" fill="none" xmlns="http://www.w3.org/2000/svg">
<path fill-rule="evenodd" clip-rule="evenodd" d="M34.4192 31C30.3217 31 27 34.3217 27 38.4192V48.813V49.4598V158.015C27 164.161 31.9825 169.144 38.1288 169.144H161.032C167.178 169.144 172.161 164.161 172.161 158.015V59.9418C172.161 53.7955 167.178 48.813 161.032 48.813H69.4024L69.4025 48.8097C68.9534 48.7792 68.5172 48.7513 68.0939 48.7242L68.0936 48.7242C61.0452 48.2737 57.5633 48.0511 57.2071 39.3904L57.1954 39.447C56.958 34.7419 53.0679 31 48.3038 31H34.4192Z" fill="#73BDFF"/>
<rect x="32.0342" y="57.8555" width="127.648" height="98.416" fill="#003CD7"/>
<rect x="36.2295" y="63.7305" width="127.648" height="98.416" fill="#2699FF"/>
<rect x="40.4248" y="69.6055" width="127.648" height="98.416" fill="#003CD7"/>
<path d="M27 98.9715C27 88.7764 35.2647 80.5117 45.4598 80.5117H154.54C164.735 80.5117 173 88.7764 173 98.9715V169.454H27V98.9715Z" fill="url(#paint0_linear_318_1310)"/>
<defs>
<linearGradient id="paint0_linear_318_1310" x1="30.9728" y1="85.3927" x2="177.633" y2="151.6" gradientUnits="userSpaceOnUse">
<stop stop-color="#3246F7"/>
<stop offset="1" stop-color="#478DF7"/>
</linearGradient>
</defs>
</svg>
