<svg width="200" height="200" viewBox="0 0 200 200" fill="none" xmlns="http://www.w3.org/2000/svg">
<rect x="63.1826" y="31" width="121.83" height="67.3273" rx="10.6869" transform="rotate(21 63.1826 31)" fill="#003CD7"/>
<rect x="57.4609" y="45.9609" width="121.83" height="9.61819" transform="rotate(21 57.4609 45.9609)" fill="white"/>
<rect x="23" y="79.0938" width="139.998" height="89.7698" fill="url(#paint0_linear_318_1309)"/>
<path d="M122.388 123.976C122.388 118.074 127.172 113.289 133.075 113.289H162.998V134.663H133.075C127.172 134.663 122.388 129.878 122.388 123.976Z" fill="#156FED"/>
<circle cx="133.075" cy="123.976" r="5.34344" fill="#F1F2F6"/>
<path d="M44.0552 144.153H46.8679V141.688H44.0552V138.591H46.8679V127.309H54.9899C56.233 127.309 57.3601 127.435 58.3714 127.688C59.3827 127.92 60.2466 128.32 60.9629 128.889C61.6792 129.437 62.227 130.164 62.6063 131.07C63.0066 131.976 63.2067 133.092 63.2067 134.42C63.2067 134.483 63.2067 134.535 63.2067 134.578C63.2067 135.673 62.996 136.685 62.5747 137.612C62.1533 138.539 61.5739 139.308 60.8365 139.919C60.0991 140.508 59.2142 140.951 58.1818 141.246C57.1494 141.541 56.0328 141.688 54.8319 141.688H50.5339V144.153H56.8861V147.061H50.5339V149.652H46.8679V147.061H44.0552V144.153ZM54.6739 138.591C55.3481 138.591 55.9696 138.517 56.5385 138.37C57.1284 138.223 57.6446 137.991 58.087 137.675C58.5295 137.359 58.8771 136.948 59.1299 136.442C59.4038 135.937 59.5513 135.315 59.5724 134.578C59.5724 133.798 59.467 133.155 59.2563 132.65C59.0456 132.123 58.7296 131.712 58.3082 131.417C57.9079 131.101 57.4128 130.891 56.8229 130.785C56.233 130.659 55.5482 130.596 54.7687 130.596H50.5339V138.591H54.6739Z" fill="#73BDFF"/>
<defs>
<linearGradient id="paint0_linear_318_1309" x1="26.8095" y1="84.0201" x2="169.798" y2="145.346" gradientUnits="userSpaceOnUse">
<stop stop-color="#3246F7"/>
<stop offset="1" stop-color="#478DF7"/>
</linearGradient>
</defs>
</svg>
