<?xml version="1.0" encoding="utf-8"?><svg viewBox="0 0 265 43" xmlns="http://www.w3.org/2000/svg" xmlns:xlink="http://www.w3.org/1999/xlink"><style>:root>svg{display:none}:root>svg:target{display:block}</style><svg fill="none" viewBox="0 0 30 9" id="burger" xmlns="http://www.w3.org/2000/svg"><path stroke="#2E2E2E" stroke-width="2" d="M0 1.467h30M0 7.467h30"/></svg><svg fill="none" viewBox="0 0 265 43" id="logo" xmlns="http://www.w3.org/2000/svg"><path d="M42 18H30v6h6v6H24v-6h-6v6H6v-6h6v-6H0v-6h12V6H6V0h12v6h6V0h12v6h-6v6h12v6ZM56.42 6.111v24.445h-6.111V0h30.555v30.556h-6.111V6.11H56.42ZM93.104 24.444h-6.11V6.111h6.11v18.333Zm18.334-18.333H93.104V0h18.334v6.111Zm6.111 18.333h-6.111V6.111h6.111v18.333Zm-6.111 6.112H93.104v-6.112h18.334v6.112ZM129.789 12.222h-6.111v-6.11h6.111v6.11Zm-6.111 6.111h6.111v12.223h-6.111V18.333Zm24.444-12.222h-18.333V0h24.444v30.556h-6.111V18.333h-18.333v-6.11h18.333V6.11ZM184.807 6.111h-18.334V0h18.334v6.111Zm-18.334 24.445v12.222h-6.111V6.11h6.111v18.333h18.334v6.112h-18.334Zm24.445-6.112h-6.111V6.111h6.111v18.333ZM197.047 0h6.111v12.222h-6.111V0Zm24.444 12.222V0h6.111v30.556h-6.111V18.333h-18.333v-6.11h18.333ZM258.176 6.111h-18.333V0h18.333v6.111Zm-18.333 12.222v6.111h-6.112V6.111h6.112v6.111h18.333v-6.11h6.111v12.221h-24.444Zm24.444 12.223h-24.444v-6.112h24.444v6.112Z" fill="#2E2E2E"/></svg></svg>