<svg xmlns="http://www.w3.org/2000/svg" width="265" height="43" viewBox="0 0 265 43" fill="none">
<path d="M42 18H30V24H36V30H24V24H18V30H6V24H12V18H0V12H12V6H6V0H18V6H24V0H36V6H30V12H42V18Z" fill="#2E2E2E"/>
<path d="M56.4197 6.11111V30.5556H50.3086V0H80.8641V30.5556H74.753V6.11111H56.4197Z" fill="#2E2E2E"/>
<path d="M93.1043 24.4444H86.9932V6.11111H93.1043V24.4444ZM111.438 6.11111H93.1043V0H111.438V6.11111ZM117.549 24.4444H111.438V6.11111H117.549V24.4444ZM111.438 30.5556H93.1043V24.4444H111.438V30.5556Z" fill="#2E2E2E"/>
<path d="M129.789 12.2222H123.678V6.11111H129.789V12.2222ZM123.678 18.3333H129.789V30.5556H123.678V18.3333ZM148.122 6.11111H129.789V0H154.233V30.5556H148.122V18.3333H129.789V12.2222H148.122V6.11111Z" fill="#2E2E2E"/>
<path d="M184.807 6.11111H166.473V0H184.807V6.11111ZM166.473 30.5556V42.7778H160.362V6.11111H166.473V24.4444H184.807V30.5556H166.473ZM190.918 24.4444H184.807V6.11111H190.918V24.4444Z" fill="#2E2E2E"/>
<path d="M197.047 0H203.158V12.2222H197.047V0ZM221.491 12.2222V0H227.602V30.5556H221.491V18.3333H203.158V12.2222H221.491Z" fill="#2E2E2E"/>
<path d="M258.176 6.11111H239.843V0H258.176V6.11111ZM239.843 18.3333V24.4444H233.731V6.11111H239.843V12.2222H258.176V6.11111H264.287V18.3333H239.843ZM264.287 30.5556H239.843V24.4444H264.287V30.5556Z" fill="#2E2E2E"/>
</svg>