<svg width="130" height="23" viewBox="0 0 130 23" fill="none" xmlns="http://www.w3.org/2000/svg">
<path d="M42.1161 15.4427H37.722V2.2061H33.3278V15.4427H28.9336V0H42.1161V15.4427Z" fill="#2E2E2E"/>
<path d="M59.6929 13.2366H57.4958V15.4427H48.7074V13.2366H46.5103V2.2061H48.7074V0H57.4958V2.2061H59.6929V13.2366ZM55.2987 13.2366V2.2061H50.9045V13.2366H55.2987Z" fill="#2E2E2E"/>
<path d="M77.2696 15.4427H72.8754V8.8244H68.4812V15.4427H64.087V8.8244H66.2841V6.6183H64.087V2.2061H66.2841V0H77.2696V15.4427ZM72.8754 6.6183V2.2061H68.4812V6.6183H72.8754Z" fill="#2E2E2E"/>
<path d="M94.8463 13.2366H92.6492V15.4427H86.0579V22.061H81.6638V0H92.6492V2.2061H94.8463V13.2366ZM90.4521 13.2366V2.2061H86.0579V13.2366H90.4521Z" fill="#2E2E2E"/>
<path d="M112.423 15.4427H108.029V11.0305H101.438V8.8244H99.2405V0H103.635V8.8244H108.029V0H112.423V15.4427Z" fill="#2E2E2E"/>
<path d="M130 8.8244H121.211V13.2366H127.803V15.4427H119.014V13.2366H116.817V2.2061H119.014V0H127.803V2.2061H130V8.8244ZM125.606 6.6183V2.2061H121.211V6.6183H125.606Z" fill="#2E2E2E"/>
<path d="M21.1334 9.3968H15.0953V12.4199H18.1144V15.4431H12.0763V12.4199H9.05719V15.4431H3.01906V12.4199H6.03813V9.3968H0V6.37367H6.03813V3.35053H3.01906V0.327393H9.05719V3.35053H12.0763V0.327393H18.1144V3.35053H15.0953V6.37367H21.1334V9.3968Z" fill="#2E2E2E"/>
</svg>
