<svg width="30" height="31" viewBox="0 0 30 31" fill="none" xmlns="http://www.w3.org/2000/svg">
<g clip-path="url(#clip0_418_856)">
<path d="M25.7202 3.02637H27.1452V1.59199H28.5702V0.166992H20.0015V1.59199H25.7202V3.02637Z" fill="white"/>
<path d="M25.7205 3.02637H24.2861V4.45137H25.7205V3.02637Z" fill="white"/>
<path d="M24.2858 4.45117H22.8608V5.88555H24.2858V4.45117Z" fill="white"/>
<path d="M22.861 5.88574H21.436V7.31074H22.861V5.88574Z" fill="white"/>
<path d="M21.4358 7.31055H20.0015V10.1699H21.4358V7.31055Z" fill="white"/>
<path d="M21.4358 3.02637H20.0015V4.45137H21.4358V3.02637Z" fill="white"/>
<path d="M20.0017 10.1699H18.5767V11.5949H20.0017V10.1699Z" fill="white"/>
<path d="M20.0017 4.45117H18.5767V5.88555H20.0017V4.45117Z" fill="white"/>
<path d="M20.0015 1.5918H17.1421V3.02617H20.0015V1.5918Z" fill="white"/>
<path d="M18.5765 5.88574H17.1421V7.31074H18.5765V5.88574Z" fill="white"/>
<path d="M18.5767 11.5952H15.7173V13.0296H18.5767V11.5952Z" fill="white"/>
<path d="M17.1423 7.31055H15.7173V8.73555H17.1423V7.31055Z" fill="white"/>
<path d="M17.1423 3.02637H15.7173V4.45137H17.1423V3.02637Z" fill="white"/>
<path d="M2.86406 30.1669H15.7172V28.7419H17.1422V23.0231H15.7172V24.4575H8.57344V23.0231H5.71875V21.5981H2.86406V23.0231H1.42969V28.7419H2.86406V30.1669ZM4.28906 24.4575H5.71875V27.3075H8.57812V28.7419H5.71875V27.3075H4.28906V24.4575Z" fill="white"/>
<path d="M15.717 8.73584H14.292V10.1702H15.717V8.73584Z" fill="white"/>
<path d="M15.717 4.45117H14.292V5.88555H15.717V4.45117Z" fill="white"/>
<path d="M15.7173 21.5981H12.8579V23.0231H15.7173V21.5981Z" fill="white"/>
<path d="M15.7172 13.0293H12.8578V11.5949H11.4328V10.1699H10.0078V14.4543H15.7172V13.0293Z" fill="white"/>
<path d="M14.2923 10.1699H12.8579V11.5949H14.2923V10.1699Z" fill="white"/>
<path d="M14.2923 5.88574H12.8579V7.31074H14.2923V5.88574Z" fill="white"/>
<path d="M12.8576 7.31055H11.4326V10.1699H12.8576V7.31055Z" fill="white"/>
<path d="M7.14844 18.739H11.4328V21.5983H12.8578V18.739H14.2922V17.314H10.0078V14.4546H8.57344V17.314H4.28906V18.739H5.71406V21.5983H7.14844V18.739Z" fill="white"/>
</g>
<defs>
<clipPath id="clip0_418_856">
<rect width="30" height="30" fill="white" transform="translate(0 0.166992)"/>
</clipPath>
</defs>
</svg>
