<svg width="30" height="31" viewBox="0 0 30 31" fill="none" xmlns="http://www.w3.org/2000/svg">
<g clip-path="url(#clip0_418_1362)">
<path d="M29.2873 8.02295H27.8623V15.1667H29.2873V8.02295Z" fill="white"/>
<path d="M27.8626 15.167H26.4282V18.0264H27.8626V15.167Z" fill="white"/>
<path d="M27.8626 5.16357H26.4282V8.02295H27.8626V5.16357Z" fill="white"/>
<path d="M26.4279 18.0264H25.0029V19.4514H26.4279V18.0264Z" fill="white"/>
<path d="M26.4279 3.73877H25.0029V5.16377H26.4279V3.73877Z" fill="white"/>
<path d="M25.0032 19.4512H23.5688V20.8855H25.0032V19.4512Z" fill="white"/>
<path d="M25.0032 10.8823H23.5688V16.5917H25.0032V10.8823Z" fill="white"/>
<path d="M23.5686 20.8857H22.1436V22.3107H23.5686V20.8857Z" fill="white"/>
<path d="M23.5686 16.5918H22.1436V18.0262H23.5686V16.5918Z" fill="white"/>
<path d="M25.0029 2.31396H22.1436V3.73896H25.0029V2.31396Z" fill="white"/>
<path d="M22.1437 22.3105H20.7188V23.7355H22.1437V22.3105Z" fill="white"/>
<path d="M22.1437 18.0264H20.7188V19.4514H22.1437V18.0264Z" fill="white"/>
<path d="M23.5686 9.45752H19.2842V10.8825H23.5686V9.45752Z" fill="white"/>
<path d="M20.7186 23.7358H19.2842V25.1702H20.7186V23.7358Z" fill="white"/>
<path d="M19.2844 25.1699H17.8594V26.5949H19.2844V25.1699Z" fill="white"/>
<path d="M20.7188 19.4512H15V20.8855H20.7188V19.4512Z" fill="white"/>
<path d="M19.2844 10.8823H17.8594V12.3073H19.2844V10.8823Z" fill="white"/>
<path d="M17.8591 8.02314H20.7185V6.59814H22.1435V5.16377H20.7185V3.73877H17.8591V5.16377H16.4341V6.59814H17.8591V8.02314Z" fill="white"/>
<path d="M17.8591 26.5952H16.4341V28.0202H17.8591V26.5952Z" fill="white"/>
<path d="M17.8591 12.3076H16.4341V13.742H17.8591V12.3076Z" fill="white"/>
<path d="M16.4344 13.7417H15V15.1667H16.4344V13.7417Z" fill="white"/>
<path d="M16.4341 28.02H7.85596V29.4544H16.4341V28.02Z" fill="white"/>
<path d="M14.9997 15.167H13.5747V19.4514H14.9997V15.167Z" fill="white"/>
<path d="M22.1438 0.879395H12.1406V2.31377H22.1438V0.879395Z" fill="white"/>
<path d="M13.5749 20.8857H10.7155V22.3107H9.29053V25.1701H10.7155V26.5951H13.5749V25.1701H14.9999V22.3107H13.5749V20.8857Z" fill="white"/>
<path d="M12.1405 2.31396H9.29053V3.73896H12.1405V2.31396Z" fill="white"/>
<path d="M9.29033 12.3075H12.1403V10.8825H13.5747V8.02314H12.1403V6.59814H9.29033V8.02314H7.85596V10.8825H9.29033V12.3075Z" fill="white"/>
<path d="M5.00615 19.4511H7.85615V18.0261H9.29053V15.1667H7.85615V13.7417H5.00615V15.1667H3.57178V18.0261H5.00615V19.4511Z" fill="white"/>
<path d="M9.29053 3.73877H6.43115V5.16377H9.29053V3.73877Z" fill="white"/>
<path d="M7.85615 26.5952H6.43115V28.0202H7.85615V26.5952Z" fill="white"/>
<path d="M6.43115 25.1699H3.57178V26.5949H6.43115V25.1699Z" fill="white"/>
<path d="M6.43135 5.16357H5.00635V6.59795H6.43135V5.16357Z" fill="white"/>
<path d="M5.00615 6.59814H3.57178V9.45752H5.00615V6.59814Z" fill="white"/>
<path d="M3.57197 22.3105H2.14697V25.1699H3.57197V22.3105Z" fill="white"/>
<path d="M3.57197 9.45752H2.14697V12.3075H3.57197V9.45752Z" fill="white"/>
<path d="M2.14678 12.3076H0.712402V22.3107H2.14678V12.3076Z" fill="white"/>
</g>
<defs>
<clipPath id="clip0_418_1362">
<rect width="30" height="30" fill="white" transform="translate(0 0.166992)"/>
</clipPath>
</defs>
</svg>
