<svg width="30" height="31" viewBox="0 0 30 31" fill="none" xmlns="http://www.w3.org/2000/svg">
<g clip-path="url(#clip0_418_800)">
<path d="M26.4279 4.45117H25.0029V23.023H26.4279V4.45117Z" fill="white"/>
<path d="M23.5687 25.8828H9.29053V24.4578H7.85615V25.8828H6.43115V30.1672H26.428V25.8828H25.003V23.0234H23.5687V25.8828ZM23.5687 28.7422H20.7187V27.3078H23.5687V28.7422Z" fill="white"/>
<path d="M25.0029 3.02637H22.1436V4.45137H25.0029V3.02637Z" fill="white"/>
<path d="M20.7188 17.314H17.8594V18.739H20.7188V17.314Z" fill="white"/>
<path d="M14.9997 18.7388H10.7153V20.1638H14.9997V18.7388Z" fill="white"/>
<path d="M12.1403 13.0199H10.7153V14.4543H13.5747V10.1699H16.4341V14.4543H13.5747V15.8793H14.9997V18.7387H16.4341V17.3137H17.8591V10.1699H20.7185V17.3137H22.1435V4.45117H20.7185V8.73555H13.5747V1.5918H12.1403V13.0199Z" fill="white"/>
<path d="M12.1405 0.166992H9.29053V1.59199H12.1405V0.166992Z" fill="white"/>
<path d="M10.7155 17.314H9.29053V18.739H10.7155V17.314Z" fill="white"/>
<path d="M10.7155 13.0199V11.5949H9.29053V1.5918H7.85615V11.5949H6.43115V13.0199H10.7155Z" fill="white"/>
<path d="M7.85615 23.0234H6.43115V24.4578H7.85615V23.0234Z" fill="white"/>
<path d="M6.43135 20.1641H5.00635V23.0234H6.43135V20.1641Z" fill="white"/>
<path d="M6.43135 13.02H5.00635V14.4544H6.43135V13.02Z" fill="white"/>
<path d="M5.00615 14.4546H3.57178V20.164H5.00615V14.4546Z" fill="white"/>
</g>
<defs>
<clipPath id="clip0_418_800">
<rect width="30" height="30" fill="white" transform="translate(0 0.166992)"/>
</clipPath>
</defs>
</svg>
