<svg width="30" height="31" viewBox="0 0 30 31" fill="none" xmlns="http://www.w3.org/2000/svg">
<path d="M27.8582 10.165H26.4238V20.1682H27.8582V10.165Z" fill="white"/>
<path d="M26.424 20.1685H24.999V21.5935H26.424V20.1685Z" fill="white"/>
<path d="M26.424 8.74023H24.999V10.1652H26.424V8.74023Z" fill="white"/>
<path d="M24.999 10.165H22.1396V11.59H24.999V10.165Z" fill="white"/>
<path d="M24.999 21.5933H22.1396V23.0276H24.999V21.5933Z" fill="white"/>
<path d="M23.5737 8.74024V7.30586H22.1394V5.88086H19.2894V7.30586H17.855V8.74024H19.2894V10.1652H22.1394V8.74024H23.5737Z" fill="white"/>
<path d="M22.1396 11.5903H19.2896V13.0247H22.1396V11.5903Z" fill="white"/>
<path d="M22.1396 23.0278H19.2896V24.4528H22.1396V23.0278Z" fill="white"/>
<path d="M16.4302 27.3122V25.8778H19.2896V24.4528H16.4302V14.4497H13.5708V15.8841H14.9958V25.8778H13.5708V27.3122H16.4302Z" fill="white"/>
<path d="M19.2896 13.0244H16.4302V14.4494H19.2896V13.0244Z" fill="white"/>
<path d="M16.4299 11.5902H17.8549V10.1652H16.4299V8.74023H13.5705V10.1652H12.1455V11.5902H13.5705V13.0246H16.4299V11.5902Z" fill="white"/>
<path d="M13.5705 3.02148V4.45586H12.1455V5.88086H13.5705V7.30586H16.4299V5.88086H17.8549V4.45586H16.4299V3.02148H13.5705Z" fill="white"/>
<path d="M13.5708 24.4526H10.7114V25.8776H13.5708V24.4526Z" fill="white"/>
<path d="M13.5708 13.0244H10.7114V14.4494H13.5708V13.0244Z" fill="white"/>
<path d="M10.7113 23.0278H7.86133V24.4528H10.7113V23.0278Z" fill="white"/>
<path d="M10.7111 8.74024H12.1455V7.30586H10.7111V5.88086H7.86113V7.30586H6.42676V8.74024H7.86113V10.1652H10.7111V8.74024Z" fill="white"/>
<path d="M10.7113 11.5903H7.86133V13.0247H10.7113V11.5903Z" fill="white"/>
<path d="M7.86133 21.5933H5.00195V23.0276H7.86133V21.5933Z" fill="white"/>
<path d="M7.86133 10.165H5.00195V11.59H7.86133V10.165Z" fill="white"/>
<path d="M5.00176 20.1685H3.56738V21.5935H5.00176V20.1685Z" fill="white"/>
<path d="M5.00176 8.74023H3.56738V10.1652H5.00176V8.74023Z" fill="white"/>
<path d="M3.56758 10.165H2.14258V20.1682H3.56758V10.165Z" fill="white"/>
</svg>
