<svg width="30" height="31" viewBox="0 0 30 31" fill="none" xmlns="http://www.w3.org/2000/svg">
<g clip-path="url(#clip0_418_1575)">
<path d="M28.5705 11.5952H27.1455V24.4483H28.5705V11.5952Z" fill="white"/>
<path d="M2.85449 30.1668H4.28887V23.023H11.4326V24.448H12.8576V25.8824H27.1451V24.448H15.717V23.023H17.142V11.5949H27.1451V10.1605H15.717V8.73555H14.2826V21.5887H4.28887V8.73555H14.2826V7.31055H4.28887V5.87617H5.71387V4.45117H2.85449V30.1668Z" fill="white"/>
<path d="M7.14824 1.5918H5.71387V4.45117H7.14824V1.5918Z" fill="white"/>
<path d="M5.71387 0.166992H2.85449V1.59199H5.71387V0.166992Z" fill="white"/>
<path d="M2.85469 1.5918H1.42969V4.45117H2.85469V1.5918Z" fill="white"/>
</g>
<defs>
<clipPath id="clip0_418_1575">
<rect width="30" height="30" fill="white" transform="translate(0 0.166992)"/>
</clipPath>
</defs>
</svg>
